M48
; DRILL file KiCad 10.0.3 date 2026-06-27T13:15:25
; FORMAT={-:-/ absolute / metric / decimal}
; #@! TF.CreationDate,2026-06-27T13:15:25+09:00
; #@! TF.GenerationSoftware,Kicad,Pcbnew,10.0.3
; #@! TF.FileFunction,Plated,1,2,PTH
FMAT,2
METRIC
; #@! TA.AperFunction,Plated,PTH,ViaDrill
T1C0.300
; #@! TA.AperFunction,Plated,PTH,ComponentDrill
T2C0.950
; #@! TA.AperFunction,Plated,PTH,ComponentDrill
T3C1.000
; #@! TA.AperFunction,Plated,PTH,ComponentDrill
T4C1.900
%
G90
G05
T1
X120.5Y-60.5
X120.5Y-61.5
X120.5Y-66.5
X120.5Y-67.5
X120.5Y-75.0
X120.5Y-76.0
X120.5Y-79.0
X120.5Y-80.0
X120.5Y-83.5
X120.5Y-84.5
X121.5Y-60.5
X121.5Y-61.5
X121.5Y-66.5
X121.5Y-67.5
X121.5Y-75.0
X121.5Y-76.0
X121.5Y-79.0
X121.5Y-80.0
X121.5Y-83.5
X121.5Y-84.5
X127.5Y-60.5
X127.5Y-61.5
X127.5Y-66.5
X127.5Y-67.5
X127.5Y-75.0
X127.5Y-76.0
X127.5Y-83.5
X127.5Y-84.5
X128.5Y-60.5
X128.5Y-61.5
X128.5Y-66.5
X128.5Y-67.5
X128.5Y-75.0
X128.5Y-76.0
X128.5Y-83.5
X128.5Y-84.5
X131.0Y-71.5
X132.0Y-74.5
X132.0Y-84.0
X134.0Y-77.5
X134.5Y-60.5
X134.5Y-75.5
X134.75Y-79.5
X134.75Y-83.0
X135.0Y-61.0
X135.5Y-60.5
X135.5Y-61.5
X135.5Y-67.0
X135.55Y-74.5
X135.55Y-78.062
X135.55Y-81.562
X136.0Y-61.0
X136.5Y-60.5
X136.5Y-61.5
X136.5Y-62.5
X136.5Y-63.5
X136.5Y-64.5
X136.5Y-65.5
X136.5Y-66.5
X136.5Y-67.5
X136.5Y-68.5
X136.5Y-69.5
X136.5Y-70.5
X136.5Y-71.5
X136.5Y-72.5
X136.5Y-79.938
X136.5Y-83.438
X137.0Y-61.0
X137.0Y-63.0
X137.0Y-64.0
X137.0Y-65.0
X137.0Y-66.0
X137.0Y-67.0
X137.0Y-68.0
X137.0Y-69.0
X137.0Y-70.0
X137.0Y-71.0
X137.0Y-72.0
X137.5Y-60.5
X137.5Y-61.5
X137.5Y-62.5
X137.5Y-63.5
X137.5Y-64.5
X137.5Y-65.5
X137.5Y-66.5
X137.5Y-67.5
X137.5Y-68.5
X137.5Y-69.5
X137.5Y-70.5
X137.5Y-71.5
X137.5Y-72.5
X137.5Y-80.0
X138.0Y-61.0
X138.0Y-63.0
X138.0Y-64.0
X138.0Y-65.0
X138.0Y-66.0
X138.0Y-67.0
X138.0Y-68.0
X138.0Y-69.0
X138.0Y-70.0
X138.0Y-71.0
X138.0Y-72.0
X138.5Y-60.5
X138.5Y-61.5
X138.5Y-62.5
X138.5Y-63.5
X138.5Y-64.5
X138.5Y-65.5
X138.5Y-66.5
X138.5Y-67.5
X138.5Y-68.5
X138.5Y-69.5
X138.5Y-70.5
X138.5Y-71.5
X138.5Y-72.5
X139.0Y-61.0
X139.0Y-78.0
X139.0Y-82.725
X139.5Y-60.5
X139.5Y-61.5
X140.0Y-61.0
X140.5Y-60.5
X140.5Y-61.5
X140.5Y-74.712
X141.0Y-61.0
X141.0Y-81.0
X141.5Y-60.5
X141.5Y-61.5
X142.0Y-61.0
X142.5Y-60.5
X142.5Y-61.5
X143.0Y-61.0
X143.0Y-62.5
X143.0Y-63.5
X143.0Y-64.5
X143.0Y-65.5
X143.0Y-66.5
X143.0Y-67.5
X143.0Y-68.5
X143.0Y-69.5
X143.0Y-70.5
X143.0Y-71.5
X143.0Y-72.5
X143.5Y-60.5
X143.5Y-61.5
X143.5Y-63.0
X143.5Y-64.0
X143.5Y-65.0
X143.5Y-66.0
X143.5Y-67.0
X143.5Y-68.0
X143.5Y-69.0
X143.5Y-70.0
X143.5Y-71.0
X143.5Y-72.0
X143.5Y-78.5
X143.5Y-81.0
X143.5Y-83.5
X143.95Y-76.25
X144.0Y-61.0
X144.0Y-62.5
X144.0Y-63.5
X144.0Y-64.5
X144.0Y-65.5
X144.0Y-66.5
X144.0Y-67.5
X144.0Y-68.5
X144.0Y-69.5
X144.0Y-70.5
X144.0Y-71.5
X144.0Y-72.5
X144.5Y-60.5
X144.5Y-61.5
X144.5Y-63.0
X144.5Y-64.0
X144.5Y-65.0
X144.5Y-66.0
X144.5Y-67.0
X144.5Y-68.0
X144.5Y-69.0
X144.5Y-70.0
X144.5Y-71.0
X144.5Y-72.0
X144.5Y-74.5
X145.0Y-61.0
X145.0Y-62.5
X145.0Y-63.5
X145.0Y-64.5
X145.0Y-65.5
X145.0Y-66.5
X145.0Y-67.5
X145.0Y-68.5
X145.0Y-69.5
X145.0Y-70.5
X145.0Y-71.5
X145.0Y-72.5
X145.0Y-78.5
X145.0Y-79.5
X145.0Y-82.0
X145.0Y-83.0
X145.5Y-60.5
X145.5Y-61.5
X146.0Y-61.0
X146.0Y-62.5
X146.0Y-63.5
X146.0Y-64.5
X146.0Y-65.5
X146.0Y-66.5
X146.0Y-70.0
X146.0Y-71.0
X146.0Y-72.0
X146.0Y-73.0
X146.0Y-74.0
X146.0Y-78.5
X146.0Y-79.5
X146.0Y-82.0
X146.0Y-83.0
X146.5Y-60.5
X146.5Y-61.5
X146.5Y-63.0
X146.5Y-64.0
X146.5Y-65.0
X146.5Y-66.0
X146.5Y-67.0
X146.5Y-70.5
X146.5Y-71.5
X146.5Y-72.5
X146.5Y-73.5
X146.5Y-74.5
X147.0Y-61.0
X147.0Y-62.5
X147.0Y-63.5
X147.0Y-64.5
X147.0Y-65.5
X147.0Y-66.5
X147.0Y-70.0
X147.0Y-71.0
X147.0Y-72.0
X147.0Y-73.0
X147.0Y-74.0
X147.135Y-76.0
X147.175Y-68.5
X147.5Y-60.5
X147.5Y-61.5
X147.5Y-63.0
X147.5Y-64.0
X147.5Y-65.0
X147.5Y-66.0
X147.5Y-67.0
X147.5Y-70.5
X147.5Y-71.5
X147.5Y-72.5
X147.5Y-73.5
X147.5Y-74.5
X148.0Y-61.0
X148.0Y-62.5
X148.0Y-63.5
X148.0Y-64.5
X148.0Y-65.5
X148.0Y-66.5
X148.0Y-70.0
X148.0Y-71.0
X148.0Y-72.0
X148.0Y-73.0
X148.0Y-74.0
X148.5Y-60.5
X148.5Y-61.5
X148.5Y-63.0
X148.5Y-64.0
X148.5Y-65.0
X148.5Y-66.0
X148.5Y-67.0
X148.5Y-70.5
X148.5Y-71.5
X148.5Y-72.5
X148.5Y-73.5
X148.5Y-74.5
X149.0Y-61.0
X149.0Y-62.5
X149.0Y-63.5
X149.0Y-64.5
X149.0Y-65.5
X149.0Y-66.5
X149.0Y-70.0
X149.0Y-71.0
X149.0Y-72.0
X149.0Y-73.0
X149.0Y-74.0
X149.0Y-78.5
X149.0Y-79.5
X149.0Y-82.0
X149.0Y-83.0
X149.5Y-60.5
X149.5Y-61.5
X149.5Y-63.0
X149.5Y-64.0
X149.5Y-65.0
X149.5Y-66.0
X149.5Y-67.0
X149.5Y-70.5
X149.5Y-71.5
X149.5Y-72.5
X149.5Y-73.5
X149.5Y-74.5
X150.0Y-61.0
X150.0Y-62.5
X150.0Y-63.5
X150.0Y-64.5
X150.0Y-65.5
X150.0Y-66.5
X150.0Y-70.0
X150.0Y-71.0
X150.0Y-72.0
X150.0Y-73.0
X150.0Y-74.0
X150.0Y-78.5
X150.0Y-79.5
X150.0Y-82.0
X150.0Y-83.0
X150.5Y-60.5
X150.5Y-61.5
X151.0Y-61.0
X151.5Y-60.5
X151.5Y-61.5
X152.0Y-61.0
X152.475Y-78.75
X152.5Y-60.5
X152.5Y-61.5
X152.75Y-76.0
X152.775Y-81.615
X153.0Y-61.0
X153.0Y-63.0
X153.0Y-64.0
X153.0Y-65.0
X153.0Y-66.0
X153.0Y-67.0
X153.0Y-70.5
X153.0Y-71.5
X153.0Y-72.5
X153.0Y-73.5
X153.0Y-74.5
X153.5Y-60.5
X153.5Y-61.5
X153.5Y-62.5
X153.5Y-63.5
X153.5Y-64.5
X153.5Y-65.5
X153.5Y-66.5
X153.5Y-70.0
X153.5Y-71.0
X153.5Y-72.0
X153.5Y-73.0
X153.5Y-74.0
X153.5Y-75.5
X154.0Y-61.0
X154.0Y-63.0
X154.0Y-64.0
X154.0Y-65.0
X154.0Y-66.0
X154.0Y-67.0
X154.0Y-70.5
X154.0Y-71.5
X154.0Y-72.5
X154.0Y-73.5
X154.0Y-74.5
X154.25Y-83.5
X154.5Y-60.5
X154.5Y-61.5
X154.5Y-62.5
X154.5Y-63.5
X154.5Y-64.5
X154.5Y-65.5
X154.5Y-66.5
X154.5Y-70.0
X154.5Y-71.0
X154.5Y-72.0
X154.5Y-73.0
X154.5Y-74.0
X154.5Y-81.0
X155.0Y-61.0
X155.0Y-63.0
X155.0Y-64.0
X155.0Y-65.0
X155.0Y-66.0
X155.0Y-67.0
X155.0Y-70.5
X155.0Y-71.5
X155.0Y-72.5
X155.0Y-73.5
X155.0Y-74.5
X155.275Y-68.5
X155.275Y-76.0
X155.5Y-60.5
X155.5Y-61.5
X155.5Y-62.5
X155.5Y-63.5
X155.5Y-64.5
X155.5Y-65.5
X155.5Y-66.5
X155.5Y-70.0
X155.5Y-71.0
X155.5Y-72.0
X155.5Y-73.0
X155.5Y-74.0
X156.0Y-61.0
X156.0Y-63.0
X156.0Y-64.0
X156.0Y-65.0
X156.0Y-66.0
X156.0Y-67.0
X156.0Y-70.5
X156.0Y-71.5
X156.0Y-72.5
X156.0Y-73.5
X156.0Y-74.5
X156.234Y-82.04
X156.5Y-60.5
X156.5Y-61.5
X156.5Y-62.5
X156.5Y-63.5
X156.5Y-64.5
X156.5Y-65.5
X156.5Y-66.5
X156.5Y-70.0
X156.5Y-71.0
X156.5Y-72.0
X156.5Y-73.0
X156.5Y-74.0
X156.5Y-81.365
X157.0Y-61.0
X157.0Y-63.0
X157.0Y-64.0
X157.0Y-65.0
X157.0Y-66.0
X157.0Y-67.0
X157.0Y-70.5
X157.0Y-71.5
X157.0Y-72.5
X157.0Y-73.5
X157.0Y-74.5
X157.5Y-60.5
X157.5Y-61.5
X157.5Y-62.5
X157.5Y-63.5
X157.5Y-64.5
X157.5Y-65.5
X157.5Y-66.5
X157.5Y-70.0
X157.5Y-71.0
X157.5Y-72.0
X157.5Y-73.0
X157.5Y-74.0
X157.725Y-82.885
X158.0Y-61.0
X158.5Y-60.5
X158.5Y-61.5
X159.0Y-61.0
X159.5Y-60.5
X159.5Y-61.5
X159.5Y-79.5
X160.0Y-61.0
X160.0Y-84.0
X160.5Y-60.5
X160.5Y-61.5
X161.0Y-61.0
X161.0Y-76.0
X161.2Y-76.75
X161.5Y-60.5
X161.5Y-61.5
X161.5Y-75.0
X162.0Y-61.0
X162.225Y-78.75
X162.5Y-60.5
X162.5Y-61.5
X163.0Y-61.0
X163.5Y-60.5
X164.0Y-83.0
X164.0Y-84.0
X164.5Y-80.5
X165.5Y-81.5
X165.5Y-84.0
X166.25Y-81.365
X167.5Y-77.5
X169.75Y-82.7
X170.0Y-77.5
X170.0Y-79.5
X170.5Y-66.75
T2
X129.695Y-77.25
X129.695Y-79.75
X129.695Y-82.25
T3
X123.675Y-61.5
X123.675Y-72.5
X167.85Y-61.75
X167.85Y-72.75
T4
X133.675Y-64.5
X133.675Y-69.5
X162.85Y-64.75
X162.85Y-69.75
M30
