%TF.GenerationSoftware,KiCad,Pcbnew,10.0.3*%
%TF.CreationDate,2026-06-27T13:15:31+09:00*%
%TF.ProjectId,dc-for-385-v2,64632d66-6f72-42d3-9338-352d76322e6b,rev?*%
%TF.SameCoordinates,Original*%
%TF.FileFunction,Legend,Bot*%
%TF.FilePolarity,Positive*%
%FSLAX46Y46*%
G04 Gerber Fmt 4.6, Leading zero omitted, Abs format (unit mm)*
G04 Created by KiCad (PCBNEW 10.0.3) date 2026-06-27 13:15:31*
%MOMM*%
%LPD*%
G01*
G04 APERTURE LIST*
%ADD10C,0.200000*%
%ADD11C,0.250000*%
G04 APERTURE END LIST*
D10*
X127358361Y-61245863D02*
X127891695Y-61436339D01*
X127891695Y-61436339D02*
X127358361Y-61626816D01*
X127891695Y-62350625D02*
X127891695Y-61893482D01*
X127891695Y-62122054D02*
X127091695Y-62122054D01*
X127091695Y-62122054D02*
X127205980Y-62045863D01*
X127205980Y-62045863D02*
X127282171Y-61969673D01*
X127282171Y-61969673D02*
X127320266Y-61893482D01*
X127815504Y-62693483D02*
X127853600Y-62731578D01*
X127853600Y-62731578D02*
X127891695Y-62693483D01*
X127891695Y-62693483D02*
X127853600Y-62655387D01*
X127853600Y-62655387D02*
X127815504Y-62693483D01*
X127815504Y-62693483D02*
X127891695Y-62693483D01*
X127091695Y-63226816D02*
X127091695Y-63303006D01*
X127091695Y-63303006D02*
X127129790Y-63379197D01*
X127129790Y-63379197D02*
X127167885Y-63417292D01*
X127167885Y-63417292D02*
X127244076Y-63455387D01*
X127244076Y-63455387D02*
X127396457Y-63493482D01*
X127396457Y-63493482D02*
X127586933Y-63493482D01*
X127586933Y-63493482D02*
X127739314Y-63455387D01*
X127739314Y-63455387D02*
X127815504Y-63417292D01*
X127815504Y-63417292D02*
X127853600Y-63379197D01*
X127853600Y-63379197D02*
X127891695Y-63303006D01*
X127891695Y-63303006D02*
X127891695Y-63226816D01*
X127891695Y-63226816D02*
X127853600Y-63150625D01*
X127853600Y-63150625D02*
X127815504Y-63112530D01*
X127815504Y-63112530D02*
X127739314Y-63074435D01*
X127739314Y-63074435D02*
X127586933Y-63036339D01*
X127586933Y-63036339D02*
X127396457Y-63036339D01*
X127396457Y-63036339D02*
X127244076Y-63074435D01*
X127244076Y-63074435D02*
X127167885Y-63112530D01*
X127167885Y-63112530D02*
X127129790Y-63150625D01*
X127129790Y-63150625D02*
X127091695Y-63226816D01*
X127815504Y-63836340D02*
X127853600Y-63874435D01*
X127853600Y-63874435D02*
X127891695Y-63836340D01*
X127891695Y-63836340D02*
X127853600Y-63798244D01*
X127853600Y-63798244D02*
X127815504Y-63836340D01*
X127815504Y-63836340D02*
X127891695Y-63836340D01*
X127891695Y-64636339D02*
X127891695Y-64179196D01*
X127891695Y-64407768D02*
X127091695Y-64407768D01*
X127091695Y-64407768D02*
X127205980Y-64331577D01*
X127205980Y-64331577D02*
X127282171Y-64255387D01*
X127282171Y-64255387D02*
X127320266Y-64179196D01*
X127510742Y-66083959D02*
X127472647Y-66045864D01*
X127472647Y-66045864D02*
X127434552Y-65969673D01*
X127434552Y-65969673D02*
X127434552Y-65893483D01*
X127434552Y-65893483D02*
X127472647Y-65817292D01*
X127472647Y-65817292D02*
X127510742Y-65779197D01*
X127510742Y-65779197D02*
X127586933Y-65741102D01*
X127586933Y-65741102D02*
X127663123Y-65741102D01*
X127663123Y-65741102D02*
X127739314Y-65779197D01*
X127739314Y-65779197D02*
X127777409Y-65817292D01*
X127777409Y-65817292D02*
X127815504Y-65893483D01*
X127815504Y-65893483D02*
X127815504Y-65969673D01*
X127815504Y-65969673D02*
X127777409Y-66045864D01*
X127777409Y-66045864D02*
X127739314Y-66083959D01*
X127434552Y-66083959D02*
X127739314Y-66083959D01*
X127739314Y-66083959D02*
X127777409Y-66122054D01*
X127777409Y-66122054D02*
X127777409Y-66160149D01*
X127777409Y-66160149D02*
X127739314Y-66236340D01*
X127739314Y-66236340D02*
X127663123Y-66274435D01*
X127663123Y-66274435D02*
X127472647Y-66274435D01*
X127472647Y-66274435D02*
X127358361Y-66198245D01*
X127358361Y-66198245D02*
X127282171Y-66083959D01*
X127282171Y-66083959D02*
X127244076Y-65931578D01*
X127244076Y-65931578D02*
X127282171Y-65779197D01*
X127282171Y-65779197D02*
X127358361Y-65664911D01*
X127358361Y-65664911D02*
X127472647Y-65588721D01*
X127472647Y-65588721D02*
X127625028Y-65550625D01*
X127625028Y-65550625D02*
X127777409Y-65588721D01*
X127777409Y-65588721D02*
X127891695Y-65664911D01*
X127891695Y-65664911D02*
X127967885Y-65779197D01*
X127967885Y-65779197D02*
X128005980Y-65931578D01*
X128005980Y-65931578D02*
X127967885Y-66083959D01*
X127967885Y-66083959D02*
X127891695Y-66198245D01*
X127358361Y-66617292D02*
X127891695Y-66617292D01*
X127434552Y-66617292D02*
X127396457Y-66655387D01*
X127396457Y-66655387D02*
X127358361Y-66731577D01*
X127358361Y-66731577D02*
X127358361Y-66845863D01*
X127358361Y-66845863D02*
X127396457Y-66922054D01*
X127396457Y-66922054D02*
X127472647Y-66960149D01*
X127472647Y-66960149D02*
X127891695Y-66960149D01*
X127853600Y-67645864D02*
X127891695Y-67569673D01*
X127891695Y-67569673D02*
X127891695Y-67417292D01*
X127891695Y-67417292D02*
X127853600Y-67341102D01*
X127853600Y-67341102D02*
X127777409Y-67303006D01*
X127777409Y-67303006D02*
X127472647Y-67303006D01*
X127472647Y-67303006D02*
X127396457Y-67341102D01*
X127396457Y-67341102D02*
X127358361Y-67417292D01*
X127358361Y-67417292D02*
X127358361Y-67569673D01*
X127358361Y-67569673D02*
X127396457Y-67645864D01*
X127396457Y-67645864D02*
X127472647Y-67683959D01*
X127472647Y-67683959D02*
X127548838Y-67683959D01*
X127548838Y-67683959D02*
X127625028Y-67303006D01*
X127358361Y-67912530D02*
X127358361Y-68217292D01*
X127091695Y-68026816D02*
X127777409Y-68026816D01*
X127777409Y-68026816D02*
X127853600Y-68064911D01*
X127853600Y-68064911D02*
X127891695Y-68141101D01*
X127891695Y-68141101D02*
X127891695Y-68217292D01*
X127853600Y-68788721D02*
X127891695Y-68712530D01*
X127891695Y-68712530D02*
X127891695Y-68560149D01*
X127891695Y-68560149D02*
X127853600Y-68483959D01*
X127853600Y-68483959D02*
X127777409Y-68445863D01*
X127777409Y-68445863D02*
X127472647Y-68445863D01*
X127472647Y-68445863D02*
X127396457Y-68483959D01*
X127396457Y-68483959D02*
X127358361Y-68560149D01*
X127358361Y-68560149D02*
X127358361Y-68712530D01*
X127358361Y-68712530D02*
X127396457Y-68788721D01*
X127396457Y-68788721D02*
X127472647Y-68826816D01*
X127472647Y-68826816D02*
X127548838Y-68826816D01*
X127548838Y-68826816D02*
X127625028Y-68445863D01*
X127358361Y-69055387D02*
X127358361Y-69360149D01*
X127091695Y-69169673D02*
X127777409Y-69169673D01*
X127777409Y-69169673D02*
X127853600Y-69207768D01*
X127853600Y-69207768D02*
X127891695Y-69283958D01*
X127891695Y-69283958D02*
X127891695Y-69360149D01*
X127891695Y-69626816D02*
X127358361Y-69626816D01*
X127510742Y-69626816D02*
X127434552Y-69664911D01*
X127434552Y-69664911D02*
X127396457Y-69703006D01*
X127396457Y-69703006D02*
X127358361Y-69779197D01*
X127358361Y-69779197D02*
X127358361Y-69855387D01*
X127891695Y-70464911D02*
X127472647Y-70464911D01*
X127472647Y-70464911D02*
X127396457Y-70426816D01*
X127396457Y-70426816D02*
X127358361Y-70350625D01*
X127358361Y-70350625D02*
X127358361Y-70198244D01*
X127358361Y-70198244D02*
X127396457Y-70122054D01*
X127853600Y-70464911D02*
X127891695Y-70388720D01*
X127891695Y-70388720D02*
X127891695Y-70198244D01*
X127891695Y-70198244D02*
X127853600Y-70122054D01*
X127853600Y-70122054D02*
X127777409Y-70083958D01*
X127777409Y-70083958D02*
X127701219Y-70083958D01*
X127701219Y-70083958D02*
X127625028Y-70122054D01*
X127625028Y-70122054D02*
X127586933Y-70198244D01*
X127586933Y-70198244D02*
X127586933Y-70388720D01*
X127586933Y-70388720D02*
X127548838Y-70464911D01*
X127091695Y-70998245D02*
X127091695Y-71074435D01*
X127091695Y-71074435D02*
X127129790Y-71150626D01*
X127129790Y-71150626D02*
X127167885Y-71188721D01*
X127167885Y-71188721D02*
X127244076Y-71226816D01*
X127244076Y-71226816D02*
X127396457Y-71264911D01*
X127396457Y-71264911D02*
X127586933Y-71264911D01*
X127586933Y-71264911D02*
X127739314Y-71226816D01*
X127739314Y-71226816D02*
X127815504Y-71188721D01*
X127815504Y-71188721D02*
X127853600Y-71150626D01*
X127853600Y-71150626D02*
X127891695Y-71074435D01*
X127891695Y-71074435D02*
X127891695Y-70998245D01*
X127891695Y-70998245D02*
X127853600Y-70922054D01*
X127853600Y-70922054D02*
X127815504Y-70883959D01*
X127815504Y-70883959D02*
X127739314Y-70845864D01*
X127739314Y-70845864D02*
X127586933Y-70807768D01*
X127586933Y-70807768D02*
X127396457Y-70807768D01*
X127396457Y-70807768D02*
X127244076Y-70845864D01*
X127244076Y-70845864D02*
X127167885Y-70883959D01*
X127167885Y-70883959D02*
X127129790Y-70922054D01*
X127129790Y-70922054D02*
X127091695Y-70998245D01*
X127091695Y-71531578D02*
X127091695Y-72064912D01*
X127091695Y-72064912D02*
X127891695Y-71722054D01*
X128667885Y-61283958D02*
X128629790Y-61322054D01*
X128629790Y-61322054D02*
X128591695Y-61398244D01*
X128591695Y-61398244D02*
X128591695Y-61588720D01*
X128591695Y-61588720D02*
X128629790Y-61664911D01*
X128629790Y-61664911D02*
X128667885Y-61703006D01*
X128667885Y-61703006D02*
X128744076Y-61741101D01*
X128744076Y-61741101D02*
X128820266Y-61741101D01*
X128820266Y-61741101D02*
X128934552Y-61703006D01*
X128934552Y-61703006D02*
X129391695Y-61245863D01*
X129391695Y-61245863D02*
X129391695Y-61741101D01*
X128858361Y-62426816D02*
X129391695Y-62426816D01*
X128553600Y-62236340D02*
X129125028Y-62045863D01*
X129125028Y-62045863D02*
X129125028Y-62541102D01*
X128591695Y-62731578D02*
X129391695Y-62998245D01*
X129391695Y-62998245D02*
X128591695Y-63264911D01*
X129391695Y-64560149D02*
X129391695Y-64103006D01*
X129391695Y-64331578D02*
X128591695Y-64331578D01*
X128591695Y-64331578D02*
X128705980Y-64255387D01*
X128705980Y-64255387D02*
X128782171Y-64179197D01*
X128782171Y-64179197D02*
X128820266Y-64103006D01*
X128591695Y-65055388D02*
X128591695Y-65131578D01*
X128591695Y-65131578D02*
X128629790Y-65207769D01*
X128629790Y-65207769D02*
X128667885Y-65245864D01*
X128667885Y-65245864D02*
X128744076Y-65283959D01*
X128744076Y-65283959D02*
X128896457Y-65322054D01*
X128896457Y-65322054D02*
X129086933Y-65322054D01*
X129086933Y-65322054D02*
X129239314Y-65283959D01*
X129239314Y-65283959D02*
X129315504Y-65245864D01*
X129315504Y-65245864D02*
X129353600Y-65207769D01*
X129353600Y-65207769D02*
X129391695Y-65131578D01*
X129391695Y-65131578D02*
X129391695Y-65055388D01*
X129391695Y-65055388D02*
X129353600Y-64979197D01*
X129353600Y-64979197D02*
X129315504Y-64941102D01*
X129315504Y-64941102D02*
X129239314Y-64903007D01*
X129239314Y-64903007D02*
X129086933Y-64864911D01*
X129086933Y-64864911D02*
X128896457Y-64864911D01*
X128896457Y-64864911D02*
X128744076Y-64903007D01*
X128744076Y-64903007D02*
X128667885Y-64941102D01*
X128667885Y-64941102D02*
X128629790Y-64979197D01*
X128629790Y-64979197D02*
X128591695Y-65055388D01*
X129163123Y-65626816D02*
X129163123Y-66007769D01*
X129391695Y-65550626D02*
X128591695Y-65817293D01*
X128591695Y-65817293D02*
X129391695Y-66083959D01*
X129391695Y-66960150D02*
X128858361Y-66960150D01*
X128934552Y-66960150D02*
X128896457Y-66998245D01*
X128896457Y-66998245D02*
X128858361Y-67074435D01*
X128858361Y-67074435D02*
X128858361Y-67188721D01*
X128858361Y-67188721D02*
X128896457Y-67264912D01*
X128896457Y-67264912D02*
X128972647Y-67303007D01*
X128972647Y-67303007D02*
X129391695Y-67303007D01*
X128972647Y-67303007D02*
X128896457Y-67341102D01*
X128896457Y-67341102D02*
X128858361Y-67417293D01*
X128858361Y-67417293D02*
X128858361Y-67531578D01*
X128858361Y-67531578D02*
X128896457Y-67607769D01*
X128896457Y-67607769D02*
X128972647Y-67645864D01*
X128972647Y-67645864D02*
X129391695Y-67645864D01*
X129391695Y-68369674D02*
X128972647Y-68369674D01*
X128972647Y-68369674D02*
X128896457Y-68331579D01*
X128896457Y-68331579D02*
X128858361Y-68255388D01*
X128858361Y-68255388D02*
X128858361Y-68103007D01*
X128858361Y-68103007D02*
X128896457Y-68026817D01*
X129353600Y-68369674D02*
X129391695Y-68293483D01*
X129391695Y-68293483D02*
X129391695Y-68103007D01*
X129391695Y-68103007D02*
X129353600Y-68026817D01*
X129353600Y-68026817D02*
X129277409Y-67988721D01*
X129277409Y-67988721D02*
X129201219Y-67988721D01*
X129201219Y-67988721D02*
X129125028Y-68026817D01*
X129125028Y-68026817D02*
X129086933Y-68103007D01*
X129086933Y-68103007D02*
X129086933Y-68293483D01*
X129086933Y-68293483D02*
X129048838Y-68369674D01*
X129391695Y-68674436D02*
X128858361Y-69093484D01*
X128858361Y-68674436D02*
X129391695Y-69093484D01*
X129315504Y-69398246D02*
X129353600Y-69436341D01*
X129353600Y-69436341D02*
X129391695Y-69398246D01*
X129391695Y-69398246D02*
X129353600Y-69360150D01*
X129353600Y-69360150D02*
X129315504Y-69398246D01*
X129315504Y-69398246D02*
X129391695Y-69398246D01*
X127106517Y-76999838D02*
X127201755Y-76952219D01*
X127201755Y-76952219D02*
X127344612Y-76952219D01*
X127344612Y-76952219D02*
X127487469Y-76999838D01*
X127487469Y-76999838D02*
X127582707Y-77095076D01*
X127582707Y-77095076D02*
X127630326Y-77190314D01*
X127630326Y-77190314D02*
X127677945Y-77380790D01*
X127677945Y-77380790D02*
X127677945Y-77523647D01*
X127677945Y-77523647D02*
X127630326Y-77714123D01*
X127630326Y-77714123D02*
X127582707Y-77809361D01*
X127582707Y-77809361D02*
X127487469Y-77904600D01*
X127487469Y-77904600D02*
X127344612Y-77952219D01*
X127344612Y-77952219D02*
X127249374Y-77952219D01*
X127249374Y-77952219D02*
X127106517Y-77904600D01*
X127106517Y-77904600D02*
X127058898Y-77856980D01*
X127058898Y-77856980D02*
X127058898Y-77523647D01*
X127058898Y-77523647D02*
X127249374Y-77523647D01*
X126630326Y-77952219D02*
X126630326Y-76952219D01*
X126630326Y-76952219D02*
X126058898Y-77952219D01*
X126058898Y-77952219D02*
X126058898Y-76952219D01*
X125582707Y-77952219D02*
X125582707Y-76952219D01*
X125582707Y-76952219D02*
X125344612Y-76952219D01*
X125344612Y-76952219D02*
X125201755Y-76999838D01*
X125201755Y-76999838D02*
X125106517Y-77095076D01*
X125106517Y-77095076D02*
X125058898Y-77190314D01*
X125058898Y-77190314D02*
X125011279Y-77380790D01*
X125011279Y-77380790D02*
X125011279Y-77523647D01*
X125011279Y-77523647D02*
X125058898Y-77714123D01*
X125058898Y-77714123D02*
X125106517Y-77809361D01*
X125106517Y-77809361D02*
X125201755Y-77904600D01*
X125201755Y-77904600D02*
X125344612Y-77952219D01*
X125344612Y-77952219D02*
X125582707Y-77952219D01*
X127630326Y-80452219D02*
X127630326Y-79452219D01*
X127630326Y-79452219D02*
X127249374Y-79452219D01*
X127249374Y-79452219D02*
X127154136Y-79499838D01*
X127154136Y-79499838D02*
X127106517Y-79547457D01*
X127106517Y-79547457D02*
X127058898Y-79642695D01*
X127058898Y-79642695D02*
X127058898Y-79785552D01*
X127058898Y-79785552D02*
X127106517Y-79880790D01*
X127106517Y-79880790D02*
X127154136Y-79928409D01*
X127154136Y-79928409D02*
X127249374Y-79976028D01*
X127249374Y-79976028D02*
X127630326Y-79976028D01*
X126725564Y-79452219D02*
X126487469Y-80452219D01*
X126487469Y-80452219D02*
X126296993Y-79737933D01*
X126296993Y-79737933D02*
X126106517Y-80452219D01*
X126106517Y-80452219D02*
X125868422Y-79452219D01*
X125487469Y-80452219D02*
X125487469Y-79452219D01*
X125487469Y-79452219D02*
X125154136Y-80166504D01*
X125154136Y-80166504D02*
X124820803Y-79452219D01*
X124820803Y-79452219D02*
X124820803Y-80452219D01*
X127630326Y-82952219D02*
X127630326Y-81952219D01*
X127630326Y-81952219D02*
X127392231Y-81952219D01*
X127392231Y-81952219D02*
X127249374Y-81999838D01*
X127249374Y-81999838D02*
X127154136Y-82095076D01*
X127154136Y-82095076D02*
X127106517Y-82190314D01*
X127106517Y-82190314D02*
X127058898Y-82380790D01*
X127058898Y-82380790D02*
X127058898Y-82523647D01*
X127058898Y-82523647D02*
X127106517Y-82714123D01*
X127106517Y-82714123D02*
X127154136Y-82809361D01*
X127154136Y-82809361D02*
X127249374Y-82904600D01*
X127249374Y-82904600D02*
X127392231Y-82952219D01*
X127392231Y-82952219D02*
X127630326Y-82952219D01*
X126630326Y-82952219D02*
X126630326Y-81952219D01*
X125582708Y-82952219D02*
X125916041Y-82476028D01*
X126154136Y-82952219D02*
X126154136Y-81952219D01*
X126154136Y-81952219D02*
X125773184Y-81952219D01*
X125773184Y-81952219D02*
X125677946Y-81999838D01*
X125677946Y-81999838D02*
X125630327Y-82047457D01*
X125630327Y-82047457D02*
X125582708Y-82142695D01*
X125582708Y-82142695D02*
X125582708Y-82285552D01*
X125582708Y-82285552D02*
X125630327Y-82380790D01*
X125630327Y-82380790D02*
X125677946Y-82428409D01*
X125677946Y-82428409D02*
X125773184Y-82476028D01*
X125773184Y-82476028D02*
X126154136Y-82476028D01*
D11*
X126364619Y-61402568D02*
X125364619Y-61402568D01*
X125364619Y-61402568D02*
X125364619Y-61640663D01*
X125364619Y-61640663D02*
X125412238Y-61783520D01*
X125412238Y-61783520D02*
X125507476Y-61878758D01*
X125507476Y-61878758D02*
X125602714Y-61926377D01*
X125602714Y-61926377D02*
X125793190Y-61973996D01*
X125793190Y-61973996D02*
X125936047Y-61973996D01*
X125936047Y-61973996D02*
X126126523Y-61926377D01*
X126126523Y-61926377D02*
X126221761Y-61878758D01*
X126221761Y-61878758D02*
X126317000Y-61783520D01*
X126317000Y-61783520D02*
X126364619Y-61640663D01*
X126364619Y-61640663D02*
X126364619Y-61402568D01*
X126269380Y-62973996D02*
X126317000Y-62926377D01*
X126317000Y-62926377D02*
X126364619Y-62783520D01*
X126364619Y-62783520D02*
X126364619Y-62688282D01*
X126364619Y-62688282D02*
X126317000Y-62545425D01*
X126317000Y-62545425D02*
X126221761Y-62450187D01*
X126221761Y-62450187D02*
X126126523Y-62402568D01*
X126126523Y-62402568D02*
X125936047Y-62354949D01*
X125936047Y-62354949D02*
X125793190Y-62354949D01*
X125793190Y-62354949D02*
X125602714Y-62402568D01*
X125602714Y-62402568D02*
X125507476Y-62450187D01*
X125507476Y-62450187D02*
X125412238Y-62545425D01*
X125412238Y-62545425D02*
X125364619Y-62688282D01*
X125364619Y-62688282D02*
X125364619Y-62783520D01*
X125364619Y-62783520D02*
X125412238Y-62926377D01*
X125412238Y-62926377D02*
X125459857Y-62973996D01*
X126364619Y-63402568D02*
X125364619Y-63402568D01*
X125364619Y-63402568D02*
X126078904Y-63735901D01*
X126078904Y-63735901D02*
X125364619Y-64069234D01*
X125364619Y-64069234D02*
X126364619Y-64069234D01*
X126364619Y-64545425D02*
X125364619Y-64545425D01*
X125364619Y-64545425D02*
X125364619Y-64783520D01*
X125364619Y-64783520D02*
X125412238Y-64926377D01*
X125412238Y-64926377D02*
X125507476Y-65021615D01*
X125507476Y-65021615D02*
X125602714Y-65069234D01*
X125602714Y-65069234D02*
X125793190Y-65116853D01*
X125793190Y-65116853D02*
X125936047Y-65116853D01*
X125936047Y-65116853D02*
X126126523Y-65069234D01*
X126126523Y-65069234D02*
X126221761Y-65021615D01*
X126221761Y-65021615D02*
X126317000Y-64926377D01*
X126317000Y-64926377D02*
X126364619Y-64783520D01*
X126364619Y-64783520D02*
X126364619Y-64545425D01*
X125697952Y-66164473D02*
X125697952Y-66545425D01*
X126364619Y-66307330D02*
X125507476Y-66307330D01*
X125507476Y-66307330D02*
X125412238Y-66354949D01*
X125412238Y-66354949D02*
X125364619Y-66450187D01*
X125364619Y-66450187D02*
X125364619Y-66545425D01*
X126364619Y-67021616D02*
X126317000Y-66926378D01*
X126317000Y-66926378D02*
X126269380Y-66878759D01*
X126269380Y-66878759D02*
X126174142Y-66831140D01*
X126174142Y-66831140D02*
X125888428Y-66831140D01*
X125888428Y-66831140D02*
X125793190Y-66878759D01*
X125793190Y-66878759D02*
X125745571Y-66926378D01*
X125745571Y-66926378D02*
X125697952Y-67021616D01*
X125697952Y-67021616D02*
X125697952Y-67164473D01*
X125697952Y-67164473D02*
X125745571Y-67259711D01*
X125745571Y-67259711D02*
X125793190Y-67307330D01*
X125793190Y-67307330D02*
X125888428Y-67354949D01*
X125888428Y-67354949D02*
X126174142Y-67354949D01*
X126174142Y-67354949D02*
X126269380Y-67307330D01*
X126269380Y-67307330D02*
X126317000Y-67259711D01*
X126317000Y-67259711D02*
X126364619Y-67164473D01*
X126364619Y-67164473D02*
X126364619Y-67021616D01*
X126364619Y-67783521D02*
X125697952Y-67783521D01*
X125888428Y-67783521D02*
X125793190Y-67831140D01*
X125793190Y-67831140D02*
X125745571Y-67878759D01*
X125745571Y-67878759D02*
X125697952Y-67973997D01*
X125697952Y-67973997D02*
X125697952Y-68069235D01*
X126364619Y-69735902D02*
X125888428Y-69402569D01*
X126364619Y-69164474D02*
X125364619Y-69164474D01*
X125364619Y-69164474D02*
X125364619Y-69545426D01*
X125364619Y-69545426D02*
X125412238Y-69640664D01*
X125412238Y-69640664D02*
X125459857Y-69688283D01*
X125459857Y-69688283D02*
X125555095Y-69735902D01*
X125555095Y-69735902D02*
X125697952Y-69735902D01*
X125697952Y-69735902D02*
X125793190Y-69688283D01*
X125793190Y-69688283D02*
X125840809Y-69640664D01*
X125840809Y-69640664D02*
X125888428Y-69545426D01*
X125888428Y-69545426D02*
X125888428Y-69164474D01*
X126317000Y-70116855D02*
X126364619Y-70259712D01*
X126364619Y-70259712D02*
X126364619Y-70497807D01*
X126364619Y-70497807D02*
X126317000Y-70593045D01*
X126317000Y-70593045D02*
X126269380Y-70640664D01*
X126269380Y-70640664D02*
X126174142Y-70688283D01*
X126174142Y-70688283D02*
X126078904Y-70688283D01*
X126078904Y-70688283D02*
X125983666Y-70640664D01*
X125983666Y-70640664D02*
X125936047Y-70593045D01*
X125936047Y-70593045D02*
X125888428Y-70497807D01*
X125888428Y-70497807D02*
X125840809Y-70307331D01*
X125840809Y-70307331D02*
X125793190Y-70212093D01*
X125793190Y-70212093D02*
X125745571Y-70164474D01*
X125745571Y-70164474D02*
X125650333Y-70116855D01*
X125650333Y-70116855D02*
X125555095Y-70116855D01*
X125555095Y-70116855D02*
X125459857Y-70164474D01*
X125459857Y-70164474D02*
X125412238Y-70212093D01*
X125412238Y-70212093D02*
X125364619Y-70307331D01*
X125364619Y-70307331D02*
X125364619Y-70545426D01*
X125364619Y-70545426D02*
X125412238Y-70688283D01*
X125364619Y-71021617D02*
X125364619Y-71640664D01*
X125364619Y-71640664D02*
X125745571Y-71307331D01*
X125745571Y-71307331D02*
X125745571Y-71450188D01*
X125745571Y-71450188D02*
X125793190Y-71545426D01*
X125793190Y-71545426D02*
X125840809Y-71593045D01*
X125840809Y-71593045D02*
X125936047Y-71640664D01*
X125936047Y-71640664D02*
X126174142Y-71640664D01*
X126174142Y-71640664D02*
X126269380Y-71593045D01*
X126269380Y-71593045D02*
X126317000Y-71545426D01*
X126317000Y-71545426D02*
X126364619Y-71450188D01*
X126364619Y-71450188D02*
X126364619Y-71164474D01*
X126364619Y-71164474D02*
X126317000Y-71069236D01*
X126317000Y-71069236D02*
X126269380Y-71021617D01*
X125793190Y-72212093D02*
X125745571Y-72116855D01*
X125745571Y-72116855D02*
X125697952Y-72069236D01*
X125697952Y-72069236D02*
X125602714Y-72021617D01*
X125602714Y-72021617D02*
X125555095Y-72021617D01*
X125555095Y-72021617D02*
X125459857Y-72069236D01*
X125459857Y-72069236D02*
X125412238Y-72116855D01*
X125412238Y-72116855D02*
X125364619Y-72212093D01*
X125364619Y-72212093D02*
X125364619Y-72402569D01*
X125364619Y-72402569D02*
X125412238Y-72497807D01*
X125412238Y-72497807D02*
X125459857Y-72545426D01*
X125459857Y-72545426D02*
X125555095Y-72593045D01*
X125555095Y-72593045D02*
X125602714Y-72593045D01*
X125602714Y-72593045D02*
X125697952Y-72545426D01*
X125697952Y-72545426D02*
X125745571Y-72497807D01*
X125745571Y-72497807D02*
X125793190Y-72402569D01*
X125793190Y-72402569D02*
X125793190Y-72212093D01*
X125793190Y-72212093D02*
X125840809Y-72116855D01*
X125840809Y-72116855D02*
X125888428Y-72069236D01*
X125888428Y-72069236D02*
X125983666Y-72021617D01*
X125983666Y-72021617D02*
X126174142Y-72021617D01*
X126174142Y-72021617D02*
X126269380Y-72069236D01*
X126269380Y-72069236D02*
X126317000Y-72116855D01*
X126317000Y-72116855D02*
X126364619Y-72212093D01*
X126364619Y-72212093D02*
X126364619Y-72402569D01*
X126364619Y-72402569D02*
X126317000Y-72497807D01*
X126317000Y-72497807D02*
X126269380Y-72545426D01*
X126269380Y-72545426D02*
X126174142Y-72593045D01*
X126174142Y-72593045D02*
X125983666Y-72593045D01*
X125983666Y-72593045D02*
X125888428Y-72545426D01*
X125888428Y-72545426D02*
X125840809Y-72497807D01*
X125840809Y-72497807D02*
X125793190Y-72402569D01*
X125364619Y-73497807D02*
X125364619Y-73021617D01*
X125364619Y-73021617D02*
X125840809Y-72973998D01*
X125840809Y-72973998D02*
X125793190Y-73021617D01*
X125793190Y-73021617D02*
X125745571Y-73116855D01*
X125745571Y-73116855D02*
X125745571Y-73354950D01*
X125745571Y-73354950D02*
X125793190Y-73450188D01*
X125793190Y-73450188D02*
X125840809Y-73497807D01*
X125840809Y-73497807D02*
X125936047Y-73545426D01*
X125936047Y-73545426D02*
X126174142Y-73545426D01*
X126174142Y-73545426D02*
X126269380Y-73497807D01*
X126269380Y-73497807D02*
X126317000Y-73450188D01*
X126317000Y-73450188D02*
X126364619Y-73354950D01*
X126364619Y-73354950D02*
X126364619Y-73116855D01*
X126364619Y-73116855D02*
X126317000Y-73021617D01*
X126317000Y-73021617D02*
X126269380Y-72973998D01*
M02*
