%TF.GenerationSoftware,KiCad,Pcbnew,10.0.3*%
%TF.CreationDate,2026-06-27T13:15:31+09:00*%
%TF.ProjectId,dc-for-385-v2,64632d66-6f72-42d3-9338-352d76322e6b,rev?*%
%TF.SameCoordinates,Original*%
%TF.FileFunction,Legend,Top*%
%TF.FilePolarity,Positive*%
%FSLAX46Y46*%
G04 Gerber Fmt 4.6, Leading zero omitted, Abs format (unit mm)*
G04 Created by KiCad (PCBNEW 10.0.3) date 2026-06-27 13:15:31*
%MOMM*%
%LPD*%
G01*
G04 APERTURE LIST*
%ADD10C,0.160000*%
%ADD11C,0.120000*%
G04 APERTURE END LIST*
D10*
X153454299Y-76249999D02*
X152978108Y-76549999D01*
X153454299Y-76764285D02*
X152454299Y-76764285D01*
X152454299Y-76764285D02*
X152454299Y-76421428D01*
X152454299Y-76421428D02*
X152501918Y-76335713D01*
X152501918Y-76335713D02*
X152549537Y-76292856D01*
X152549537Y-76292856D02*
X152644775Y-76249999D01*
X152644775Y-76249999D02*
X152787632Y-76249999D01*
X152787632Y-76249999D02*
X152882870Y-76292856D01*
X152882870Y-76292856D02*
X152930489Y-76335713D01*
X152930489Y-76335713D02*
X152978108Y-76421428D01*
X152978108Y-76421428D02*
X152978108Y-76764285D01*
X152454299Y-75478571D02*
X152454299Y-75649999D01*
X152454299Y-75649999D02*
X152501918Y-75735713D01*
X152501918Y-75735713D02*
X152549537Y-75778571D01*
X152549537Y-75778571D02*
X152692394Y-75864285D01*
X152692394Y-75864285D02*
X152882870Y-75907142D01*
X152882870Y-75907142D02*
X153263822Y-75907142D01*
X153263822Y-75907142D02*
X153359060Y-75864285D01*
X153359060Y-75864285D02*
X153406680Y-75821428D01*
X153406680Y-75821428D02*
X153454299Y-75735713D01*
X153454299Y-75735713D02*
X153454299Y-75564285D01*
X153454299Y-75564285D02*
X153406680Y-75478571D01*
X153406680Y-75478571D02*
X153359060Y-75435713D01*
X153359060Y-75435713D02*
X153263822Y-75392856D01*
X153263822Y-75392856D02*
X153025727Y-75392856D01*
X153025727Y-75392856D02*
X152930489Y-75435713D01*
X152930489Y-75435713D02*
X152882870Y-75478571D01*
X152882870Y-75478571D02*
X152835251Y-75564285D01*
X152835251Y-75564285D02*
X152835251Y-75735713D01*
X152835251Y-75735713D02*
X152882870Y-75821428D01*
X152882870Y-75821428D02*
X152930489Y-75864285D01*
X152930489Y-75864285D02*
X153025727Y-75907142D01*
X140533333Y-84759060D02*
X140485714Y-84806680D01*
X140485714Y-84806680D02*
X140342857Y-84854299D01*
X140342857Y-84854299D02*
X140247619Y-84854299D01*
X140247619Y-84854299D02*
X140104762Y-84806680D01*
X140104762Y-84806680D02*
X140009524Y-84711441D01*
X140009524Y-84711441D02*
X139961905Y-84616203D01*
X139961905Y-84616203D02*
X139914286Y-84425727D01*
X139914286Y-84425727D02*
X139914286Y-84282870D01*
X139914286Y-84282870D02*
X139961905Y-84092394D01*
X139961905Y-84092394D02*
X140009524Y-83997156D01*
X140009524Y-83997156D02*
X140104762Y-83901918D01*
X140104762Y-83901918D02*
X140247619Y-83854299D01*
X140247619Y-83854299D02*
X140342857Y-83854299D01*
X140342857Y-83854299D02*
X140485714Y-83901918D01*
X140485714Y-83901918D02*
X140533333Y-83949537D01*
X140866667Y-83854299D02*
X141485714Y-83854299D01*
X141485714Y-83854299D02*
X141152381Y-84235251D01*
X141152381Y-84235251D02*
X141295238Y-84235251D01*
X141295238Y-84235251D02*
X141390476Y-84282870D01*
X141390476Y-84282870D02*
X141438095Y-84330489D01*
X141438095Y-84330489D02*
X141485714Y-84425727D01*
X141485714Y-84425727D02*
X141485714Y-84663822D01*
X141485714Y-84663822D02*
X141438095Y-84759060D01*
X141438095Y-84759060D02*
X141390476Y-84806680D01*
X141390476Y-84806680D02*
X141295238Y-84854299D01*
X141295238Y-84854299D02*
X141009524Y-84854299D01*
X141009524Y-84854299D02*
X140914286Y-84806680D01*
X140914286Y-84806680D02*
X140866667Y-84759060D01*
X154654299Y-68916666D02*
X154178108Y-69249999D01*
X154654299Y-69488094D02*
X153654299Y-69488094D01*
X153654299Y-69488094D02*
X153654299Y-69107142D01*
X153654299Y-69107142D02*
X153701918Y-69011904D01*
X153701918Y-69011904D02*
X153749537Y-68964285D01*
X153749537Y-68964285D02*
X153844775Y-68916666D01*
X153844775Y-68916666D02*
X153987632Y-68916666D01*
X153987632Y-68916666D02*
X154082870Y-68964285D01*
X154082870Y-68964285D02*
X154130489Y-69011904D01*
X154130489Y-69011904D02*
X154178108Y-69107142D01*
X154178108Y-69107142D02*
X154178108Y-69488094D01*
X153654299Y-68583332D02*
X153654299Y-67964285D01*
X153654299Y-67964285D02*
X154035251Y-68297618D01*
X154035251Y-68297618D02*
X154035251Y-68154761D01*
X154035251Y-68154761D02*
X154082870Y-68059523D01*
X154082870Y-68059523D02*
X154130489Y-68011904D01*
X154130489Y-68011904D02*
X154225727Y-67964285D01*
X154225727Y-67964285D02*
X154463822Y-67964285D01*
X154463822Y-67964285D02*
X154559060Y-68011904D01*
X154559060Y-68011904D02*
X154606680Y-68059523D01*
X154606680Y-68059523D02*
X154654299Y-68154761D01*
X154654299Y-68154761D02*
X154654299Y-68440475D01*
X154654299Y-68440475D02*
X154606680Y-68535713D01*
X154606680Y-68535713D02*
X154559060Y-68583332D01*
X143459060Y-68078571D02*
X143506680Y-68121428D01*
X143506680Y-68121428D02*
X143554299Y-68250000D01*
X143554299Y-68250000D02*
X143554299Y-68335714D01*
X143554299Y-68335714D02*
X143506680Y-68464285D01*
X143506680Y-68464285D02*
X143411441Y-68550000D01*
X143411441Y-68550000D02*
X143316203Y-68592857D01*
X143316203Y-68592857D02*
X143125727Y-68635714D01*
X143125727Y-68635714D02*
X142982870Y-68635714D01*
X142982870Y-68635714D02*
X142792394Y-68592857D01*
X142792394Y-68592857D02*
X142697156Y-68550000D01*
X142697156Y-68550000D02*
X142601918Y-68464285D01*
X142601918Y-68464285D02*
X142554299Y-68335714D01*
X142554299Y-68335714D02*
X142554299Y-68250000D01*
X142554299Y-68250000D02*
X142601918Y-68121428D01*
X142601918Y-68121428D02*
X142649537Y-68078571D01*
X143554299Y-67221428D02*
X143554299Y-67735714D01*
X143554299Y-67478571D02*
X142554299Y-67478571D01*
X142554299Y-67478571D02*
X142697156Y-67564285D01*
X142697156Y-67564285D02*
X142792394Y-67650000D01*
X142792394Y-67650000D02*
X142840013Y-67735714D01*
X142554299Y-66664285D02*
X142554299Y-66578571D01*
X142554299Y-66578571D02*
X142601918Y-66492857D01*
X142601918Y-66492857D02*
X142649537Y-66450000D01*
X142649537Y-66450000D02*
X142744775Y-66407142D01*
X142744775Y-66407142D02*
X142935251Y-66364285D01*
X142935251Y-66364285D02*
X143173346Y-66364285D01*
X143173346Y-66364285D02*
X143363822Y-66407142D01*
X143363822Y-66407142D02*
X143459060Y-66450000D01*
X143459060Y-66450000D02*
X143506680Y-66492857D01*
X143506680Y-66492857D02*
X143554299Y-66578571D01*
X143554299Y-66578571D02*
X143554299Y-66664285D01*
X143554299Y-66664285D02*
X143506680Y-66750000D01*
X143506680Y-66750000D02*
X143459060Y-66792857D01*
X143459060Y-66792857D02*
X143363822Y-66835714D01*
X143363822Y-66835714D02*
X143173346Y-66878571D01*
X143173346Y-66878571D02*
X142935251Y-66878571D01*
X142935251Y-66878571D02*
X142744775Y-66835714D01*
X142744775Y-66835714D02*
X142649537Y-66792857D01*
X142649537Y-66792857D02*
X142601918Y-66750000D01*
X142601918Y-66750000D02*
X142554299Y-66664285D01*
X144404761Y-73799537D02*
X144309523Y-73751918D01*
X144309523Y-73751918D02*
X144214285Y-73656680D01*
X144214285Y-73656680D02*
X144071428Y-73513822D01*
X144071428Y-73513822D02*
X143976190Y-73466203D01*
X143976190Y-73466203D02*
X143880952Y-73466203D01*
X143928571Y-73704299D02*
X143833333Y-73656680D01*
X143833333Y-73656680D02*
X143738095Y-73561441D01*
X143738095Y-73561441D02*
X143690476Y-73370965D01*
X143690476Y-73370965D02*
X143690476Y-73037632D01*
X143690476Y-73037632D02*
X143738095Y-72847156D01*
X143738095Y-72847156D02*
X143833333Y-72751918D01*
X143833333Y-72751918D02*
X143928571Y-72704299D01*
X143928571Y-72704299D02*
X144119047Y-72704299D01*
X144119047Y-72704299D02*
X144214285Y-72751918D01*
X144214285Y-72751918D02*
X144309523Y-72847156D01*
X144309523Y-72847156D02*
X144357142Y-73037632D01*
X144357142Y-73037632D02*
X144357142Y-73370965D01*
X144357142Y-73370965D02*
X144309523Y-73561441D01*
X144309523Y-73561441D02*
X144214285Y-73656680D01*
X144214285Y-73656680D02*
X144119047Y-73704299D01*
X144119047Y-73704299D02*
X143928571Y-73704299D01*
X144690476Y-72704299D02*
X145309523Y-72704299D01*
X145309523Y-72704299D02*
X144976190Y-73085251D01*
X144976190Y-73085251D02*
X145119047Y-73085251D01*
X145119047Y-73085251D02*
X145214285Y-73132870D01*
X145214285Y-73132870D02*
X145261904Y-73180489D01*
X145261904Y-73180489D02*
X145309523Y-73275727D01*
X145309523Y-73275727D02*
X145309523Y-73513822D01*
X145309523Y-73513822D02*
X145261904Y-73609060D01*
X145261904Y-73609060D02*
X145214285Y-73656680D01*
X145214285Y-73656680D02*
X145119047Y-73704299D01*
X145119047Y-73704299D02*
X144833333Y-73704299D01*
X144833333Y-73704299D02*
X144738095Y-73656680D01*
X144738095Y-73656680D02*
X144690476Y-73609060D01*
X138859060Y-64166666D02*
X138906680Y-64214285D01*
X138906680Y-64214285D02*
X138954299Y-64357142D01*
X138954299Y-64357142D02*
X138954299Y-64452380D01*
X138954299Y-64452380D02*
X138906680Y-64595237D01*
X138906680Y-64595237D02*
X138811441Y-64690475D01*
X138811441Y-64690475D02*
X138716203Y-64738094D01*
X138716203Y-64738094D02*
X138525727Y-64785713D01*
X138525727Y-64785713D02*
X138382870Y-64785713D01*
X138382870Y-64785713D02*
X138192394Y-64738094D01*
X138192394Y-64738094D02*
X138097156Y-64690475D01*
X138097156Y-64690475D02*
X138001918Y-64595237D01*
X138001918Y-64595237D02*
X137954299Y-64452380D01*
X137954299Y-64452380D02*
X137954299Y-64357142D01*
X137954299Y-64357142D02*
X138001918Y-64214285D01*
X138001918Y-64214285D02*
X138049537Y-64166666D01*
X137954299Y-63833332D02*
X137954299Y-63166666D01*
X137954299Y-63166666D02*
X138954299Y-63595237D01*
X159833333Y-84609060D02*
X159785714Y-84656680D01*
X159785714Y-84656680D02*
X159642857Y-84704299D01*
X159642857Y-84704299D02*
X159547619Y-84704299D01*
X159547619Y-84704299D02*
X159404762Y-84656680D01*
X159404762Y-84656680D02*
X159309524Y-84561441D01*
X159309524Y-84561441D02*
X159261905Y-84466203D01*
X159261905Y-84466203D02*
X159214286Y-84275727D01*
X159214286Y-84275727D02*
X159214286Y-84132870D01*
X159214286Y-84132870D02*
X159261905Y-83942394D01*
X159261905Y-83942394D02*
X159309524Y-83847156D01*
X159309524Y-83847156D02*
X159404762Y-83751918D01*
X159404762Y-83751918D02*
X159547619Y-83704299D01*
X159547619Y-83704299D02*
X159642857Y-83704299D01*
X159642857Y-83704299D02*
X159785714Y-83751918D01*
X159785714Y-83751918D02*
X159833333Y-83799537D01*
X160214286Y-83799537D02*
X160261905Y-83751918D01*
X160261905Y-83751918D02*
X160357143Y-83704299D01*
X160357143Y-83704299D02*
X160595238Y-83704299D01*
X160595238Y-83704299D02*
X160690476Y-83751918D01*
X160690476Y-83751918D02*
X160738095Y-83799537D01*
X160738095Y-83799537D02*
X160785714Y-83894775D01*
X160785714Y-83894775D02*
X160785714Y-83990013D01*
X160785714Y-83990013D02*
X160738095Y-84132870D01*
X160738095Y-84132870D02*
X160166667Y-84704299D01*
X160166667Y-84704299D02*
X160785714Y-84704299D01*
X156504761Y-61799537D02*
X156409523Y-61751918D01*
X156409523Y-61751918D02*
X156314285Y-61656680D01*
X156314285Y-61656680D02*
X156171428Y-61513822D01*
X156171428Y-61513822D02*
X156076190Y-61466203D01*
X156076190Y-61466203D02*
X155980952Y-61466203D01*
X156028571Y-61704299D02*
X155933333Y-61656680D01*
X155933333Y-61656680D02*
X155838095Y-61561441D01*
X155838095Y-61561441D02*
X155790476Y-61370965D01*
X155790476Y-61370965D02*
X155790476Y-61037632D01*
X155790476Y-61037632D02*
X155838095Y-60847156D01*
X155838095Y-60847156D02*
X155933333Y-60751918D01*
X155933333Y-60751918D02*
X156028571Y-60704299D01*
X156028571Y-60704299D02*
X156219047Y-60704299D01*
X156219047Y-60704299D02*
X156314285Y-60751918D01*
X156314285Y-60751918D02*
X156409523Y-60847156D01*
X156409523Y-60847156D02*
X156457142Y-61037632D01*
X156457142Y-61037632D02*
X156457142Y-61370965D01*
X156457142Y-61370965D02*
X156409523Y-61561441D01*
X156409523Y-61561441D02*
X156314285Y-61656680D01*
X156314285Y-61656680D02*
X156219047Y-61704299D01*
X156219047Y-61704299D02*
X156028571Y-61704299D01*
X156838095Y-60799537D02*
X156885714Y-60751918D01*
X156885714Y-60751918D02*
X156980952Y-60704299D01*
X156980952Y-60704299D02*
X157219047Y-60704299D01*
X157219047Y-60704299D02*
X157314285Y-60751918D01*
X157314285Y-60751918D02*
X157361904Y-60799537D01*
X157361904Y-60799537D02*
X157409523Y-60894775D01*
X157409523Y-60894775D02*
X157409523Y-60990013D01*
X157409523Y-60990013D02*
X157361904Y-61132870D01*
X157361904Y-61132870D02*
X156790476Y-61704299D01*
X156790476Y-61704299D02*
X157409523Y-61704299D01*
X149004761Y-61799537D02*
X148909523Y-61751918D01*
X148909523Y-61751918D02*
X148814285Y-61656680D01*
X148814285Y-61656680D02*
X148671428Y-61513822D01*
X148671428Y-61513822D02*
X148576190Y-61466203D01*
X148576190Y-61466203D02*
X148480952Y-61466203D01*
X148528571Y-61704299D02*
X148433333Y-61656680D01*
X148433333Y-61656680D02*
X148338095Y-61561441D01*
X148338095Y-61561441D02*
X148290476Y-61370965D01*
X148290476Y-61370965D02*
X148290476Y-61037632D01*
X148290476Y-61037632D02*
X148338095Y-60847156D01*
X148338095Y-60847156D02*
X148433333Y-60751918D01*
X148433333Y-60751918D02*
X148528571Y-60704299D01*
X148528571Y-60704299D02*
X148719047Y-60704299D01*
X148719047Y-60704299D02*
X148814285Y-60751918D01*
X148814285Y-60751918D02*
X148909523Y-60847156D01*
X148909523Y-60847156D02*
X148957142Y-61037632D01*
X148957142Y-61037632D02*
X148957142Y-61370965D01*
X148957142Y-61370965D02*
X148909523Y-61561441D01*
X148909523Y-61561441D02*
X148814285Y-61656680D01*
X148814285Y-61656680D02*
X148719047Y-61704299D01*
X148719047Y-61704299D02*
X148528571Y-61704299D01*
X149909523Y-61704299D02*
X149338095Y-61704299D01*
X149623809Y-61704299D02*
X149623809Y-60704299D01*
X149623809Y-60704299D02*
X149528571Y-60847156D01*
X149528571Y-60847156D02*
X149433333Y-60942394D01*
X149433333Y-60942394D02*
X149338095Y-60990013D01*
X169583333Y-84609060D02*
X169535714Y-84656680D01*
X169535714Y-84656680D02*
X169392857Y-84704299D01*
X169392857Y-84704299D02*
X169297619Y-84704299D01*
X169297619Y-84704299D02*
X169154762Y-84656680D01*
X169154762Y-84656680D02*
X169059524Y-84561441D01*
X169059524Y-84561441D02*
X169011905Y-84466203D01*
X169011905Y-84466203D02*
X168964286Y-84275727D01*
X168964286Y-84275727D02*
X168964286Y-84132870D01*
X168964286Y-84132870D02*
X169011905Y-83942394D01*
X169011905Y-83942394D02*
X169059524Y-83847156D01*
X169059524Y-83847156D02*
X169154762Y-83751918D01*
X169154762Y-83751918D02*
X169297619Y-83704299D01*
X169297619Y-83704299D02*
X169392857Y-83704299D01*
X169392857Y-83704299D02*
X169535714Y-83751918D01*
X169535714Y-83751918D02*
X169583333Y-83799537D01*
X170535714Y-84704299D02*
X169964286Y-84704299D01*
X170250000Y-84704299D02*
X170250000Y-83704299D01*
X170250000Y-83704299D02*
X170154762Y-83847156D01*
X170154762Y-83847156D02*
X170059524Y-83942394D01*
X170059524Y-83942394D02*
X169964286Y-83990013D01*
X146454299Y-68916666D02*
X145978108Y-69249999D01*
X146454299Y-69488094D02*
X145454299Y-69488094D01*
X145454299Y-69488094D02*
X145454299Y-69107142D01*
X145454299Y-69107142D02*
X145501918Y-69011904D01*
X145501918Y-69011904D02*
X145549537Y-68964285D01*
X145549537Y-68964285D02*
X145644775Y-68916666D01*
X145644775Y-68916666D02*
X145787632Y-68916666D01*
X145787632Y-68916666D02*
X145882870Y-68964285D01*
X145882870Y-68964285D02*
X145930489Y-69011904D01*
X145930489Y-69011904D02*
X145978108Y-69107142D01*
X145978108Y-69107142D02*
X145978108Y-69488094D01*
X146454299Y-67964285D02*
X146454299Y-68535713D01*
X146454299Y-68249999D02*
X145454299Y-68249999D01*
X145454299Y-68249999D02*
X145597156Y-68345237D01*
X145597156Y-68345237D02*
X145692394Y-68440475D01*
X145692394Y-68440475D02*
X145740013Y-68535713D01*
X162833333Y-77859060D02*
X162785714Y-77906680D01*
X162785714Y-77906680D02*
X162642857Y-77954299D01*
X162642857Y-77954299D02*
X162547619Y-77954299D01*
X162547619Y-77954299D02*
X162404762Y-77906680D01*
X162404762Y-77906680D02*
X162309524Y-77811441D01*
X162309524Y-77811441D02*
X162261905Y-77716203D01*
X162261905Y-77716203D02*
X162214286Y-77525727D01*
X162214286Y-77525727D02*
X162214286Y-77382870D01*
X162214286Y-77382870D02*
X162261905Y-77192394D01*
X162261905Y-77192394D02*
X162309524Y-77097156D01*
X162309524Y-77097156D02*
X162404762Y-77001918D01*
X162404762Y-77001918D02*
X162547619Y-76954299D01*
X162547619Y-76954299D02*
X162642857Y-76954299D01*
X162642857Y-76954299D02*
X162785714Y-77001918D01*
X162785714Y-77001918D02*
X162833333Y-77049537D01*
X163690476Y-76954299D02*
X163500000Y-76954299D01*
X163500000Y-76954299D02*
X163404762Y-77001918D01*
X163404762Y-77001918D02*
X163357143Y-77049537D01*
X163357143Y-77049537D02*
X163261905Y-77192394D01*
X163261905Y-77192394D02*
X163214286Y-77382870D01*
X163214286Y-77382870D02*
X163214286Y-77763822D01*
X163214286Y-77763822D02*
X163261905Y-77859060D01*
X163261905Y-77859060D02*
X163309524Y-77906680D01*
X163309524Y-77906680D02*
X163404762Y-77954299D01*
X163404762Y-77954299D02*
X163595238Y-77954299D01*
X163595238Y-77954299D02*
X163690476Y-77906680D01*
X163690476Y-77906680D02*
X163738095Y-77859060D01*
X163738095Y-77859060D02*
X163785714Y-77763822D01*
X163785714Y-77763822D02*
X163785714Y-77525727D01*
X163785714Y-77525727D02*
X163738095Y-77430489D01*
X163738095Y-77430489D02*
X163690476Y-77382870D01*
X163690476Y-77382870D02*
X163595238Y-77335251D01*
X163595238Y-77335251D02*
X163404762Y-77335251D01*
X163404762Y-77335251D02*
X163309524Y-77382870D01*
X163309524Y-77382870D02*
X163261905Y-77430489D01*
X163261905Y-77430489D02*
X163214286Y-77525727D01*
X159011905Y-78954299D02*
X159011905Y-77954299D01*
X159011905Y-77954299D02*
X159250000Y-77954299D01*
X159250000Y-77954299D02*
X159392857Y-78001918D01*
X159392857Y-78001918D02*
X159488095Y-78097156D01*
X159488095Y-78097156D02*
X159535714Y-78192394D01*
X159535714Y-78192394D02*
X159583333Y-78382870D01*
X159583333Y-78382870D02*
X159583333Y-78525727D01*
X159583333Y-78525727D02*
X159535714Y-78716203D01*
X159535714Y-78716203D02*
X159488095Y-78811441D01*
X159488095Y-78811441D02*
X159392857Y-78906680D01*
X159392857Y-78906680D02*
X159250000Y-78954299D01*
X159250000Y-78954299D02*
X159011905Y-78954299D01*
X159964286Y-78049537D02*
X160011905Y-78001918D01*
X160011905Y-78001918D02*
X160107143Y-77954299D01*
X160107143Y-77954299D02*
X160345238Y-77954299D01*
X160345238Y-77954299D02*
X160440476Y-78001918D01*
X160440476Y-78001918D02*
X160488095Y-78049537D01*
X160488095Y-78049537D02*
X160535714Y-78144775D01*
X160535714Y-78144775D02*
X160535714Y-78240013D01*
X160535714Y-78240013D02*
X160488095Y-78382870D01*
X160488095Y-78382870D02*
X159916667Y-78954299D01*
X159916667Y-78954299D02*
X160535714Y-78954299D01*
X161549537Y-72095238D02*
X161501918Y-72190476D01*
X161501918Y-72190476D02*
X161406680Y-72285714D01*
X161406680Y-72285714D02*
X161263822Y-72428571D01*
X161263822Y-72428571D02*
X161216203Y-72523809D01*
X161216203Y-72523809D02*
X161216203Y-72619047D01*
X161454299Y-72571428D02*
X161406680Y-72666666D01*
X161406680Y-72666666D02*
X161311441Y-72761904D01*
X161311441Y-72761904D02*
X161120965Y-72809523D01*
X161120965Y-72809523D02*
X160787632Y-72809523D01*
X160787632Y-72809523D02*
X160597156Y-72761904D01*
X160597156Y-72761904D02*
X160501918Y-72666666D01*
X160501918Y-72666666D02*
X160454299Y-72571428D01*
X160454299Y-72571428D02*
X160454299Y-72380952D01*
X160454299Y-72380952D02*
X160501918Y-72285714D01*
X160501918Y-72285714D02*
X160597156Y-72190476D01*
X160597156Y-72190476D02*
X160787632Y-72142857D01*
X160787632Y-72142857D02*
X161120965Y-72142857D01*
X161120965Y-72142857D02*
X161311441Y-72190476D01*
X161311441Y-72190476D02*
X161406680Y-72285714D01*
X161406680Y-72285714D02*
X161454299Y-72380952D01*
X161454299Y-72380952D02*
X161454299Y-72571428D01*
X160787632Y-71285714D02*
X161454299Y-71285714D01*
X160406680Y-71523809D02*
X161120965Y-71761904D01*
X161120965Y-71761904D02*
X161120965Y-71142857D01*
X143459060Y-71578571D02*
X143506680Y-71621428D01*
X143506680Y-71621428D02*
X143554299Y-71750000D01*
X143554299Y-71750000D02*
X143554299Y-71835714D01*
X143554299Y-71835714D02*
X143506680Y-71964285D01*
X143506680Y-71964285D02*
X143411441Y-72050000D01*
X143411441Y-72050000D02*
X143316203Y-72092857D01*
X143316203Y-72092857D02*
X143125727Y-72135714D01*
X143125727Y-72135714D02*
X142982870Y-72135714D01*
X142982870Y-72135714D02*
X142792394Y-72092857D01*
X142792394Y-72092857D02*
X142697156Y-72050000D01*
X142697156Y-72050000D02*
X142601918Y-71964285D01*
X142601918Y-71964285D02*
X142554299Y-71835714D01*
X142554299Y-71835714D02*
X142554299Y-71750000D01*
X142554299Y-71750000D02*
X142601918Y-71621428D01*
X142601918Y-71621428D02*
X142649537Y-71578571D01*
X143554299Y-70721428D02*
X143554299Y-71235714D01*
X143554299Y-70978571D02*
X142554299Y-70978571D01*
X142554299Y-70978571D02*
X142697156Y-71064285D01*
X142697156Y-71064285D02*
X142792394Y-71150000D01*
X142792394Y-71150000D02*
X142840013Y-71235714D01*
X142649537Y-70378571D02*
X142601918Y-70335714D01*
X142601918Y-70335714D02*
X142554299Y-70250000D01*
X142554299Y-70250000D02*
X142554299Y-70035714D01*
X142554299Y-70035714D02*
X142601918Y-69950000D01*
X142601918Y-69950000D02*
X142649537Y-69907142D01*
X142649537Y-69907142D02*
X142744775Y-69864285D01*
X142744775Y-69864285D02*
X142840013Y-69864285D01*
X142840013Y-69864285D02*
X142982870Y-69907142D01*
X142982870Y-69907142D02*
X143554299Y-70421428D01*
X143554299Y-70421428D02*
X143554299Y-69864285D01*
X121166666Y-73204299D02*
X121166666Y-73918584D01*
X121166666Y-73918584D02*
X121119047Y-74061441D01*
X121119047Y-74061441D02*
X121023809Y-74156680D01*
X121023809Y-74156680D02*
X120880952Y-74204299D01*
X120880952Y-74204299D02*
X120785714Y-74204299D01*
X121547619Y-73204299D02*
X122166666Y-73204299D01*
X122166666Y-73204299D02*
X121833333Y-73585251D01*
X121833333Y-73585251D02*
X121976190Y-73585251D01*
X121976190Y-73585251D02*
X122071428Y-73632870D01*
X122071428Y-73632870D02*
X122119047Y-73680489D01*
X122119047Y-73680489D02*
X122166666Y-73775727D01*
X122166666Y-73775727D02*
X122166666Y-74013822D01*
X122166666Y-74013822D02*
X122119047Y-74109060D01*
X122119047Y-74109060D02*
X122071428Y-74156680D01*
X122071428Y-74156680D02*
X121976190Y-74204299D01*
X121976190Y-74204299D02*
X121690476Y-74204299D01*
X121690476Y-74204299D02*
X121595238Y-74156680D01*
X121595238Y-74156680D02*
X121547619Y-74109060D01*
X138357142Y-73704299D02*
X138023809Y-73228108D01*
X137785714Y-73704299D02*
X137785714Y-72704299D01*
X137785714Y-72704299D02*
X138166666Y-72704299D01*
X138166666Y-72704299D02*
X138261904Y-72751918D01*
X138261904Y-72751918D02*
X138309523Y-72799537D01*
X138309523Y-72799537D02*
X138357142Y-72894775D01*
X138357142Y-72894775D02*
X138357142Y-73037632D01*
X138357142Y-73037632D02*
X138309523Y-73132870D01*
X138309523Y-73132870D02*
X138261904Y-73180489D01*
X138261904Y-73180489D02*
X138166666Y-73228108D01*
X138166666Y-73228108D02*
X137785714Y-73228108D01*
X139309523Y-73704299D02*
X138738095Y-73704299D01*
X139023809Y-73704299D02*
X139023809Y-72704299D01*
X139023809Y-72704299D02*
X138928571Y-72847156D01*
X138928571Y-72847156D02*
X138833333Y-72942394D01*
X138833333Y-72942394D02*
X138738095Y-72990013D01*
X139642857Y-72704299D02*
X140261904Y-72704299D01*
X140261904Y-72704299D02*
X139928571Y-73085251D01*
X139928571Y-73085251D02*
X140071428Y-73085251D01*
X140071428Y-73085251D02*
X140166666Y-73132870D01*
X140166666Y-73132870D02*
X140214285Y-73180489D01*
X140214285Y-73180489D02*
X140261904Y-73275727D01*
X140261904Y-73275727D02*
X140261904Y-73513822D01*
X140261904Y-73513822D02*
X140214285Y-73609060D01*
X140214285Y-73609060D02*
X140166666Y-73656680D01*
X140166666Y-73656680D02*
X140071428Y-73704299D01*
X140071428Y-73704299D02*
X139785714Y-73704299D01*
X139785714Y-73704299D02*
X139690476Y-73656680D01*
X139690476Y-73656680D02*
X139642857Y-73609060D01*
X162583333Y-74954299D02*
X162250000Y-74478108D01*
X162011905Y-74954299D02*
X162011905Y-73954299D01*
X162011905Y-73954299D02*
X162392857Y-73954299D01*
X162392857Y-73954299D02*
X162488095Y-74001918D01*
X162488095Y-74001918D02*
X162535714Y-74049537D01*
X162535714Y-74049537D02*
X162583333Y-74144775D01*
X162583333Y-74144775D02*
X162583333Y-74287632D01*
X162583333Y-74287632D02*
X162535714Y-74382870D01*
X162535714Y-74382870D02*
X162488095Y-74430489D01*
X162488095Y-74430489D02*
X162392857Y-74478108D01*
X162392857Y-74478108D02*
X162011905Y-74478108D01*
X163059524Y-74954299D02*
X163250000Y-74954299D01*
X163250000Y-74954299D02*
X163345238Y-74906680D01*
X163345238Y-74906680D02*
X163392857Y-74859060D01*
X163392857Y-74859060D02*
X163488095Y-74716203D01*
X163488095Y-74716203D02*
X163535714Y-74525727D01*
X163535714Y-74525727D02*
X163535714Y-74144775D01*
X163535714Y-74144775D02*
X163488095Y-74049537D01*
X163488095Y-74049537D02*
X163440476Y-74001918D01*
X163440476Y-74001918D02*
X163345238Y-73954299D01*
X163345238Y-73954299D02*
X163154762Y-73954299D01*
X163154762Y-73954299D02*
X163059524Y-74001918D01*
X163059524Y-74001918D02*
X163011905Y-74049537D01*
X163011905Y-74049537D02*
X162964286Y-74144775D01*
X162964286Y-74144775D02*
X162964286Y-74382870D01*
X162964286Y-74382870D02*
X163011905Y-74478108D01*
X163011905Y-74478108D02*
X163059524Y-74525727D01*
X163059524Y-74525727D02*
X163154762Y-74573346D01*
X163154762Y-74573346D02*
X163345238Y-74573346D01*
X163345238Y-74573346D02*
X163440476Y-74525727D01*
X163440476Y-74525727D02*
X163488095Y-74478108D01*
X163488095Y-74478108D02*
X163535714Y-74382870D01*
X164238095Y-81704299D02*
X164238095Y-82513822D01*
X164238095Y-82513822D02*
X164285714Y-82609060D01*
X164285714Y-82609060D02*
X164333333Y-82656680D01*
X164333333Y-82656680D02*
X164428571Y-82704299D01*
X164428571Y-82704299D02*
X164619047Y-82704299D01*
X164619047Y-82704299D02*
X164714285Y-82656680D01*
X164714285Y-82656680D02*
X164761904Y-82609060D01*
X164761904Y-82609060D02*
X164809523Y-82513822D01*
X164809523Y-82513822D02*
X164809523Y-81704299D01*
X165809523Y-82704299D02*
X165238095Y-82704299D01*
X165523809Y-82704299D02*
X165523809Y-81704299D01*
X165523809Y-81704299D02*
X165428571Y-81847156D01*
X165428571Y-81847156D02*
X165333333Y-81942394D01*
X165333333Y-81942394D02*
X165238095Y-81990013D01*
X138859060Y-71578571D02*
X138906680Y-71621428D01*
X138906680Y-71621428D02*
X138954299Y-71750000D01*
X138954299Y-71750000D02*
X138954299Y-71835714D01*
X138954299Y-71835714D02*
X138906680Y-71964285D01*
X138906680Y-71964285D02*
X138811441Y-72050000D01*
X138811441Y-72050000D02*
X138716203Y-72092857D01*
X138716203Y-72092857D02*
X138525727Y-72135714D01*
X138525727Y-72135714D02*
X138382870Y-72135714D01*
X138382870Y-72135714D02*
X138192394Y-72092857D01*
X138192394Y-72092857D02*
X138097156Y-72050000D01*
X138097156Y-72050000D02*
X138001918Y-71964285D01*
X138001918Y-71964285D02*
X137954299Y-71835714D01*
X137954299Y-71835714D02*
X137954299Y-71750000D01*
X137954299Y-71750000D02*
X138001918Y-71621428D01*
X138001918Y-71621428D02*
X138049537Y-71578571D01*
X138954299Y-70721428D02*
X138954299Y-71235714D01*
X138954299Y-70978571D02*
X137954299Y-70978571D01*
X137954299Y-70978571D02*
X138097156Y-71064285D01*
X138097156Y-71064285D02*
X138192394Y-71150000D01*
X138192394Y-71150000D02*
X138240013Y-71235714D01*
X138954299Y-69864285D02*
X138954299Y-70378571D01*
X138954299Y-70121428D02*
X137954299Y-70121428D01*
X137954299Y-70121428D02*
X138097156Y-70207142D01*
X138097156Y-70207142D02*
X138192394Y-70292857D01*
X138192394Y-70292857D02*
X138240013Y-70378571D01*
X153083333Y-77959060D02*
X153035714Y-78006680D01*
X153035714Y-78006680D02*
X152892857Y-78054299D01*
X152892857Y-78054299D02*
X152797619Y-78054299D01*
X152797619Y-78054299D02*
X152654762Y-78006680D01*
X152654762Y-78006680D02*
X152559524Y-77911441D01*
X152559524Y-77911441D02*
X152511905Y-77816203D01*
X152511905Y-77816203D02*
X152464286Y-77625727D01*
X152464286Y-77625727D02*
X152464286Y-77482870D01*
X152464286Y-77482870D02*
X152511905Y-77292394D01*
X152511905Y-77292394D02*
X152559524Y-77197156D01*
X152559524Y-77197156D02*
X152654762Y-77101918D01*
X152654762Y-77101918D02*
X152797619Y-77054299D01*
X152797619Y-77054299D02*
X152892857Y-77054299D01*
X152892857Y-77054299D02*
X153035714Y-77101918D01*
X153035714Y-77101918D02*
X153083333Y-77149537D01*
X153940476Y-77387632D02*
X153940476Y-78054299D01*
X153702381Y-77006680D02*
X153464286Y-77720965D01*
X153464286Y-77720965D02*
X154083333Y-77720965D01*
X161454299Y-74466666D02*
X160978108Y-74799999D01*
X161454299Y-75038094D02*
X160454299Y-75038094D01*
X160454299Y-75038094D02*
X160454299Y-74657142D01*
X160454299Y-74657142D02*
X160501918Y-74561904D01*
X160501918Y-74561904D02*
X160549537Y-74514285D01*
X160549537Y-74514285D02*
X160644775Y-74466666D01*
X160644775Y-74466666D02*
X160787632Y-74466666D01*
X160787632Y-74466666D02*
X160882870Y-74514285D01*
X160882870Y-74514285D02*
X160930489Y-74561904D01*
X160930489Y-74561904D02*
X160978108Y-74657142D01*
X160978108Y-74657142D02*
X160978108Y-75038094D01*
X160882870Y-73895237D02*
X160835251Y-73990475D01*
X160835251Y-73990475D02*
X160787632Y-74038094D01*
X160787632Y-74038094D02*
X160692394Y-74085713D01*
X160692394Y-74085713D02*
X160644775Y-74085713D01*
X160644775Y-74085713D02*
X160549537Y-74038094D01*
X160549537Y-74038094D02*
X160501918Y-73990475D01*
X160501918Y-73990475D02*
X160454299Y-73895237D01*
X160454299Y-73895237D02*
X160454299Y-73704761D01*
X160454299Y-73704761D02*
X160501918Y-73609523D01*
X160501918Y-73609523D02*
X160549537Y-73561904D01*
X160549537Y-73561904D02*
X160644775Y-73514285D01*
X160644775Y-73514285D02*
X160692394Y-73514285D01*
X160692394Y-73514285D02*
X160787632Y-73561904D01*
X160787632Y-73561904D02*
X160835251Y-73609523D01*
X160835251Y-73609523D02*
X160882870Y-73704761D01*
X160882870Y-73704761D02*
X160882870Y-73895237D01*
X160882870Y-73895237D02*
X160930489Y-73990475D01*
X160930489Y-73990475D02*
X160978108Y-74038094D01*
X160978108Y-74038094D02*
X161073346Y-74085713D01*
X161073346Y-74085713D02*
X161263822Y-74085713D01*
X161263822Y-74085713D02*
X161359060Y-74038094D01*
X161359060Y-74038094D02*
X161406680Y-73990475D01*
X161406680Y-73990475D02*
X161454299Y-73895237D01*
X161454299Y-73895237D02*
X161454299Y-73704761D01*
X161454299Y-73704761D02*
X161406680Y-73609523D01*
X161406680Y-73609523D02*
X161359060Y-73561904D01*
X161359060Y-73561904D02*
X161263822Y-73514285D01*
X161263822Y-73514285D02*
X161073346Y-73514285D01*
X161073346Y-73514285D02*
X160978108Y-73561904D01*
X160978108Y-73561904D02*
X160930489Y-73609523D01*
X160930489Y-73609523D02*
X160882870Y-73704761D01*
X154488095Y-81704299D02*
X154488095Y-82513822D01*
X154488095Y-82513822D02*
X154535714Y-82609060D01*
X154535714Y-82609060D02*
X154583333Y-82656680D01*
X154583333Y-82656680D02*
X154678571Y-82704299D01*
X154678571Y-82704299D02*
X154869047Y-82704299D01*
X154869047Y-82704299D02*
X154964285Y-82656680D01*
X154964285Y-82656680D02*
X155011904Y-82609060D01*
X155011904Y-82609060D02*
X155059523Y-82513822D01*
X155059523Y-82513822D02*
X155059523Y-81704299D01*
X155488095Y-81799537D02*
X155535714Y-81751918D01*
X155535714Y-81751918D02*
X155630952Y-81704299D01*
X155630952Y-81704299D02*
X155869047Y-81704299D01*
X155869047Y-81704299D02*
X155964285Y-81751918D01*
X155964285Y-81751918D02*
X156011904Y-81799537D01*
X156011904Y-81799537D02*
X156059523Y-81894775D01*
X156059523Y-81894775D02*
X156059523Y-81990013D01*
X156059523Y-81990013D02*
X156011904Y-82132870D01*
X156011904Y-82132870D02*
X155440476Y-82704299D01*
X155440476Y-82704299D02*
X156059523Y-82704299D01*
X170204299Y-74738094D02*
X169204299Y-74738094D01*
X169204299Y-74738094D02*
X169204299Y-74499999D01*
X169204299Y-74499999D02*
X169251918Y-74357142D01*
X169251918Y-74357142D02*
X169347156Y-74261904D01*
X169347156Y-74261904D02*
X169442394Y-74214285D01*
X169442394Y-74214285D02*
X169632870Y-74166666D01*
X169632870Y-74166666D02*
X169775727Y-74166666D01*
X169775727Y-74166666D02*
X169966203Y-74214285D01*
X169966203Y-74214285D02*
X170061441Y-74261904D01*
X170061441Y-74261904D02*
X170156680Y-74357142D01*
X170156680Y-74357142D02*
X170204299Y-74499999D01*
X170204299Y-74499999D02*
X170204299Y-74738094D01*
X169204299Y-73833332D02*
X169204299Y-73214285D01*
X169204299Y-73214285D02*
X169585251Y-73547618D01*
X169585251Y-73547618D02*
X169585251Y-73404761D01*
X169585251Y-73404761D02*
X169632870Y-73309523D01*
X169632870Y-73309523D02*
X169680489Y-73261904D01*
X169680489Y-73261904D02*
X169775727Y-73214285D01*
X169775727Y-73214285D02*
X170013822Y-73214285D01*
X170013822Y-73214285D02*
X170109060Y-73261904D01*
X170109060Y-73261904D02*
X170156680Y-73309523D01*
X170156680Y-73309523D02*
X170204299Y-73404761D01*
X170204299Y-73404761D02*
X170204299Y-73690475D01*
X170204299Y-73690475D02*
X170156680Y-73785713D01*
X170156680Y-73785713D02*
X170109060Y-73833332D01*
X132857142Y-77954299D02*
X132523809Y-77478108D01*
X132285714Y-77954299D02*
X132285714Y-76954299D01*
X132285714Y-76954299D02*
X132666666Y-76954299D01*
X132666666Y-76954299D02*
X132761904Y-77001918D01*
X132761904Y-77001918D02*
X132809523Y-77049537D01*
X132809523Y-77049537D02*
X132857142Y-77144775D01*
X132857142Y-77144775D02*
X132857142Y-77287632D01*
X132857142Y-77287632D02*
X132809523Y-77382870D01*
X132809523Y-77382870D02*
X132761904Y-77430489D01*
X132761904Y-77430489D02*
X132666666Y-77478108D01*
X132666666Y-77478108D02*
X132285714Y-77478108D01*
X133809523Y-77954299D02*
X133238095Y-77954299D01*
X133523809Y-77954299D02*
X133523809Y-76954299D01*
X133523809Y-76954299D02*
X133428571Y-77097156D01*
X133428571Y-77097156D02*
X133333333Y-77192394D01*
X133333333Y-77192394D02*
X133238095Y-77240013D01*
X134190476Y-77049537D02*
X134238095Y-77001918D01*
X134238095Y-77001918D02*
X134333333Y-76954299D01*
X134333333Y-76954299D02*
X134571428Y-76954299D01*
X134571428Y-76954299D02*
X134666666Y-77001918D01*
X134666666Y-77001918D02*
X134714285Y-77049537D01*
X134714285Y-77049537D02*
X134761904Y-77144775D01*
X134761904Y-77144775D02*
X134761904Y-77240013D01*
X134761904Y-77240013D02*
X134714285Y-77382870D01*
X134714285Y-77382870D02*
X134142857Y-77954299D01*
X134142857Y-77954299D02*
X134761904Y-77954299D01*
X161654299Y-67666666D02*
X161178108Y-67999999D01*
X161654299Y-68238094D02*
X160654299Y-68238094D01*
X160654299Y-68238094D02*
X160654299Y-67857142D01*
X160654299Y-67857142D02*
X160701918Y-67761904D01*
X160701918Y-67761904D02*
X160749537Y-67714285D01*
X160749537Y-67714285D02*
X160844775Y-67666666D01*
X160844775Y-67666666D02*
X160987632Y-67666666D01*
X160987632Y-67666666D02*
X161082870Y-67714285D01*
X161082870Y-67714285D02*
X161130489Y-67761904D01*
X161130489Y-67761904D02*
X161178108Y-67857142D01*
X161178108Y-67857142D02*
X161178108Y-68238094D01*
X160987632Y-66809523D02*
X161654299Y-66809523D01*
X160606680Y-67047618D02*
X161320965Y-67285713D01*
X161320965Y-67285713D02*
X161320965Y-66666666D01*
X165011905Y-75024299D02*
X165011905Y-74024299D01*
X165011905Y-74024299D02*
X165250000Y-74024299D01*
X165250000Y-74024299D02*
X165392857Y-74071918D01*
X165392857Y-74071918D02*
X165488095Y-74167156D01*
X165488095Y-74167156D02*
X165535714Y-74262394D01*
X165535714Y-74262394D02*
X165583333Y-74452870D01*
X165583333Y-74452870D02*
X165583333Y-74595727D01*
X165583333Y-74595727D02*
X165535714Y-74786203D01*
X165535714Y-74786203D02*
X165488095Y-74881441D01*
X165488095Y-74881441D02*
X165392857Y-74976680D01*
X165392857Y-74976680D02*
X165250000Y-75024299D01*
X165250000Y-75024299D02*
X165011905Y-75024299D01*
X166440476Y-74357632D02*
X166440476Y-75024299D01*
X166202381Y-73976680D02*
X165964286Y-74690965D01*
X165964286Y-74690965D02*
X166583333Y-74690965D01*
X142954299Y-81590594D02*
X141954299Y-81590594D01*
X141954299Y-81590594D02*
X141954299Y-81352499D01*
X141954299Y-81352499D02*
X142001918Y-81209642D01*
X142001918Y-81209642D02*
X142097156Y-81114404D01*
X142097156Y-81114404D02*
X142192394Y-81066785D01*
X142192394Y-81066785D02*
X142382870Y-81019166D01*
X142382870Y-81019166D02*
X142525727Y-81019166D01*
X142525727Y-81019166D02*
X142716203Y-81066785D01*
X142716203Y-81066785D02*
X142811441Y-81114404D01*
X142811441Y-81114404D02*
X142906680Y-81209642D01*
X142906680Y-81209642D02*
X142954299Y-81352499D01*
X142954299Y-81352499D02*
X142954299Y-81590594D01*
X141954299Y-80114404D02*
X141954299Y-80590594D01*
X141954299Y-80590594D02*
X142430489Y-80638213D01*
X142430489Y-80638213D02*
X142382870Y-80590594D01*
X142382870Y-80590594D02*
X142335251Y-80495356D01*
X142335251Y-80495356D02*
X142335251Y-80257261D01*
X142335251Y-80257261D02*
X142382870Y-80162023D01*
X142382870Y-80162023D02*
X142430489Y-80114404D01*
X142430489Y-80114404D02*
X142525727Y-80066785D01*
X142525727Y-80066785D02*
X142763822Y-80066785D01*
X142763822Y-80066785D02*
X142859060Y-80114404D01*
X142859060Y-80114404D02*
X142906680Y-80162023D01*
X142906680Y-80162023D02*
X142954299Y-80257261D01*
X142954299Y-80257261D02*
X142954299Y-80495356D01*
X142954299Y-80495356D02*
X142906680Y-80590594D01*
X142906680Y-80590594D02*
X142859060Y-80638213D01*
X143083333Y-74859060D02*
X143035714Y-74906680D01*
X143035714Y-74906680D02*
X142892857Y-74954299D01*
X142892857Y-74954299D02*
X142797619Y-74954299D01*
X142797619Y-74954299D02*
X142654762Y-74906680D01*
X142654762Y-74906680D02*
X142559524Y-74811441D01*
X142559524Y-74811441D02*
X142511905Y-74716203D01*
X142511905Y-74716203D02*
X142464286Y-74525727D01*
X142464286Y-74525727D02*
X142464286Y-74382870D01*
X142464286Y-74382870D02*
X142511905Y-74192394D01*
X142511905Y-74192394D02*
X142559524Y-74097156D01*
X142559524Y-74097156D02*
X142654762Y-74001918D01*
X142654762Y-74001918D02*
X142797619Y-73954299D01*
X142797619Y-73954299D02*
X142892857Y-73954299D01*
X142892857Y-73954299D02*
X143035714Y-74001918D01*
X143035714Y-74001918D02*
X143083333Y-74049537D01*
X143988095Y-73954299D02*
X143511905Y-73954299D01*
X143511905Y-73954299D02*
X143464286Y-74430489D01*
X143464286Y-74430489D02*
X143511905Y-74382870D01*
X143511905Y-74382870D02*
X143607143Y-74335251D01*
X143607143Y-74335251D02*
X143845238Y-74335251D01*
X143845238Y-74335251D02*
X143940476Y-74382870D01*
X143940476Y-74382870D02*
X143988095Y-74430489D01*
X143988095Y-74430489D02*
X144035714Y-74525727D01*
X144035714Y-74525727D02*
X144035714Y-74763822D01*
X144035714Y-74763822D02*
X143988095Y-74859060D01*
X143988095Y-74859060D02*
X143940476Y-74906680D01*
X143940476Y-74906680D02*
X143845238Y-74954299D01*
X143845238Y-74954299D02*
X143607143Y-74954299D01*
X143607143Y-74954299D02*
X143511905Y-74906680D01*
X143511905Y-74906680D02*
X143464286Y-74859060D01*
X143459060Y-64166666D02*
X143506680Y-64214285D01*
X143506680Y-64214285D02*
X143554299Y-64357142D01*
X143554299Y-64357142D02*
X143554299Y-64452380D01*
X143554299Y-64452380D02*
X143506680Y-64595237D01*
X143506680Y-64595237D02*
X143411441Y-64690475D01*
X143411441Y-64690475D02*
X143316203Y-64738094D01*
X143316203Y-64738094D02*
X143125727Y-64785713D01*
X143125727Y-64785713D02*
X142982870Y-64785713D01*
X142982870Y-64785713D02*
X142792394Y-64738094D01*
X142792394Y-64738094D02*
X142697156Y-64690475D01*
X142697156Y-64690475D02*
X142601918Y-64595237D01*
X142601918Y-64595237D02*
X142554299Y-64452380D01*
X142554299Y-64452380D02*
X142554299Y-64357142D01*
X142554299Y-64357142D02*
X142601918Y-64214285D01*
X142601918Y-64214285D02*
X142649537Y-64166666D01*
X142982870Y-63595237D02*
X142935251Y-63690475D01*
X142935251Y-63690475D02*
X142887632Y-63738094D01*
X142887632Y-63738094D02*
X142792394Y-63785713D01*
X142792394Y-63785713D02*
X142744775Y-63785713D01*
X142744775Y-63785713D02*
X142649537Y-63738094D01*
X142649537Y-63738094D02*
X142601918Y-63690475D01*
X142601918Y-63690475D02*
X142554299Y-63595237D01*
X142554299Y-63595237D02*
X142554299Y-63404761D01*
X142554299Y-63404761D02*
X142601918Y-63309523D01*
X142601918Y-63309523D02*
X142649537Y-63261904D01*
X142649537Y-63261904D02*
X142744775Y-63214285D01*
X142744775Y-63214285D02*
X142792394Y-63214285D01*
X142792394Y-63214285D02*
X142887632Y-63261904D01*
X142887632Y-63261904D02*
X142935251Y-63309523D01*
X142935251Y-63309523D02*
X142982870Y-63404761D01*
X142982870Y-63404761D02*
X142982870Y-63595237D01*
X142982870Y-63595237D02*
X143030489Y-63690475D01*
X143030489Y-63690475D02*
X143078108Y-63738094D01*
X143078108Y-63738094D02*
X143173346Y-63785713D01*
X143173346Y-63785713D02*
X143363822Y-63785713D01*
X143363822Y-63785713D02*
X143459060Y-63738094D01*
X143459060Y-63738094D02*
X143506680Y-63690475D01*
X143506680Y-63690475D02*
X143554299Y-63595237D01*
X143554299Y-63595237D02*
X143554299Y-63404761D01*
X143554299Y-63404761D02*
X143506680Y-63309523D01*
X143506680Y-63309523D02*
X143459060Y-63261904D01*
X143459060Y-63261904D02*
X143363822Y-63214285D01*
X143363822Y-63214285D02*
X143173346Y-63214285D01*
X143173346Y-63214285D02*
X143078108Y-63261904D01*
X143078108Y-63261904D02*
X143030489Y-63309523D01*
X143030489Y-63309523D02*
X142982870Y-63404761D01*
X130857142Y-73954299D02*
X130523809Y-73478108D01*
X130285714Y-73954299D02*
X130285714Y-72954299D01*
X130285714Y-72954299D02*
X130666666Y-72954299D01*
X130666666Y-72954299D02*
X130761904Y-73001918D01*
X130761904Y-73001918D02*
X130809523Y-73049537D01*
X130809523Y-73049537D02*
X130857142Y-73144775D01*
X130857142Y-73144775D02*
X130857142Y-73287632D01*
X130857142Y-73287632D02*
X130809523Y-73382870D01*
X130809523Y-73382870D02*
X130761904Y-73430489D01*
X130761904Y-73430489D02*
X130666666Y-73478108D01*
X130666666Y-73478108D02*
X130285714Y-73478108D01*
X131809523Y-73954299D02*
X131238095Y-73954299D01*
X131523809Y-73954299D02*
X131523809Y-72954299D01*
X131523809Y-72954299D02*
X131428571Y-73097156D01*
X131428571Y-73097156D02*
X131333333Y-73192394D01*
X131333333Y-73192394D02*
X131238095Y-73240013D01*
X132761904Y-73954299D02*
X132190476Y-73954299D01*
X132476190Y-73954299D02*
X132476190Y-72954299D01*
X132476190Y-72954299D02*
X132380952Y-73097156D01*
X132380952Y-73097156D02*
X132285714Y-73192394D01*
X132285714Y-73192394D02*
X132190476Y-73240013D01*
X139454299Y-79369047D02*
X138454299Y-79369047D01*
X138454299Y-79369047D02*
X138454299Y-79130952D01*
X138454299Y-79130952D02*
X138501918Y-78988095D01*
X138501918Y-78988095D02*
X138597156Y-78892857D01*
X138597156Y-78892857D02*
X138692394Y-78845238D01*
X138692394Y-78845238D02*
X138882870Y-78797619D01*
X138882870Y-78797619D02*
X139025727Y-78797619D01*
X139025727Y-78797619D02*
X139216203Y-78845238D01*
X139216203Y-78845238D02*
X139311441Y-78892857D01*
X139311441Y-78892857D02*
X139406680Y-78988095D01*
X139406680Y-78988095D02*
X139454299Y-79130952D01*
X139454299Y-79130952D02*
X139454299Y-79369047D01*
X138454299Y-78511904D02*
X138454299Y-77940476D01*
X139454299Y-78226190D02*
X138454299Y-78226190D01*
X138454299Y-77702380D02*
X138454299Y-77083333D01*
X138454299Y-77083333D02*
X138835251Y-77416666D01*
X138835251Y-77416666D02*
X138835251Y-77273809D01*
X138835251Y-77273809D02*
X138882870Y-77178571D01*
X138882870Y-77178571D02*
X138930489Y-77130952D01*
X138930489Y-77130952D02*
X139025727Y-77083333D01*
X139025727Y-77083333D02*
X139263822Y-77083333D01*
X139263822Y-77083333D02*
X139359060Y-77130952D01*
X139359060Y-77130952D02*
X139406680Y-77178571D01*
X139406680Y-77178571D02*
X139454299Y-77273809D01*
X139454299Y-77273809D02*
X139454299Y-77559523D01*
X139454299Y-77559523D02*
X139406680Y-77654761D01*
X139406680Y-77654761D02*
X139359060Y-77702380D01*
X153454299Y-68916666D02*
X152978108Y-69249999D01*
X153454299Y-69488094D02*
X152454299Y-69488094D01*
X152454299Y-69488094D02*
X152454299Y-69107142D01*
X152454299Y-69107142D02*
X152501918Y-69011904D01*
X152501918Y-69011904D02*
X152549537Y-68964285D01*
X152549537Y-68964285D02*
X152644775Y-68916666D01*
X152644775Y-68916666D02*
X152787632Y-68916666D01*
X152787632Y-68916666D02*
X152882870Y-68964285D01*
X152882870Y-68964285D02*
X152930489Y-69011904D01*
X152930489Y-69011904D02*
X152978108Y-69107142D01*
X152978108Y-69107142D02*
X152978108Y-69488094D01*
X152549537Y-68535713D02*
X152501918Y-68488094D01*
X152501918Y-68488094D02*
X152454299Y-68392856D01*
X152454299Y-68392856D02*
X152454299Y-68154761D01*
X152454299Y-68154761D02*
X152501918Y-68059523D01*
X152501918Y-68059523D02*
X152549537Y-68011904D01*
X152549537Y-68011904D02*
X152644775Y-67964285D01*
X152644775Y-67964285D02*
X152740013Y-67964285D01*
X152740013Y-67964285D02*
X152882870Y-68011904D01*
X152882870Y-68011904D02*
X153454299Y-68583332D01*
X153454299Y-68583332D02*
X153454299Y-67964285D01*
X150238095Y-76776799D02*
X150238095Y-77586322D01*
X150238095Y-77586322D02*
X150285714Y-77681560D01*
X150285714Y-77681560D02*
X150333333Y-77729180D01*
X150333333Y-77729180D02*
X150428571Y-77776799D01*
X150428571Y-77776799D02*
X150619047Y-77776799D01*
X150619047Y-77776799D02*
X150714285Y-77729180D01*
X150714285Y-77729180D02*
X150761904Y-77681560D01*
X150761904Y-77681560D02*
X150809523Y-77586322D01*
X150809523Y-77586322D02*
X150809523Y-76776799D01*
X151190476Y-76776799D02*
X151809523Y-76776799D01*
X151809523Y-76776799D02*
X151476190Y-77157751D01*
X151476190Y-77157751D02*
X151619047Y-77157751D01*
X151619047Y-77157751D02*
X151714285Y-77205370D01*
X151714285Y-77205370D02*
X151761904Y-77252989D01*
X151761904Y-77252989D02*
X151809523Y-77348227D01*
X151809523Y-77348227D02*
X151809523Y-77586322D01*
X151809523Y-77586322D02*
X151761904Y-77681560D01*
X151761904Y-77681560D02*
X151714285Y-77729180D01*
X151714285Y-77729180D02*
X151619047Y-77776799D01*
X151619047Y-77776799D02*
X151333333Y-77776799D01*
X151333333Y-77776799D02*
X151238095Y-77729180D01*
X151238095Y-77729180D02*
X151190476Y-77681560D01*
X139454299Y-81869047D02*
X138454299Y-81869047D01*
X138454299Y-81869047D02*
X138454299Y-81630952D01*
X138454299Y-81630952D02*
X138501918Y-81488095D01*
X138501918Y-81488095D02*
X138597156Y-81392857D01*
X138597156Y-81392857D02*
X138692394Y-81345238D01*
X138692394Y-81345238D02*
X138882870Y-81297619D01*
X138882870Y-81297619D02*
X139025727Y-81297619D01*
X139025727Y-81297619D02*
X139216203Y-81345238D01*
X139216203Y-81345238D02*
X139311441Y-81392857D01*
X139311441Y-81392857D02*
X139406680Y-81488095D01*
X139406680Y-81488095D02*
X139454299Y-81630952D01*
X139454299Y-81630952D02*
X139454299Y-81869047D01*
X138454299Y-81011904D02*
X138454299Y-80440476D01*
X139454299Y-80726190D02*
X138454299Y-80726190D01*
X139454299Y-79583333D02*
X139454299Y-80154761D01*
X139454299Y-79869047D02*
X138454299Y-79869047D01*
X138454299Y-79869047D02*
X138597156Y-79964285D01*
X138597156Y-79964285D02*
X138692394Y-80059523D01*
X138692394Y-80059523D02*
X138740013Y-80154761D01*
X169704299Y-79238094D02*
X168704299Y-79238094D01*
X168704299Y-79238094D02*
X168704299Y-78999999D01*
X168704299Y-78999999D02*
X168751918Y-78857142D01*
X168751918Y-78857142D02*
X168847156Y-78761904D01*
X168847156Y-78761904D02*
X168942394Y-78714285D01*
X168942394Y-78714285D02*
X169132870Y-78666666D01*
X169132870Y-78666666D02*
X169275727Y-78666666D01*
X169275727Y-78666666D02*
X169466203Y-78714285D01*
X169466203Y-78714285D02*
X169561441Y-78761904D01*
X169561441Y-78761904D02*
X169656680Y-78857142D01*
X169656680Y-78857142D02*
X169704299Y-78999999D01*
X169704299Y-78999999D02*
X169704299Y-79238094D01*
X169704299Y-77714285D02*
X169704299Y-78285713D01*
X169704299Y-77999999D02*
X168704299Y-77999999D01*
X168704299Y-77999999D02*
X168847156Y-78095237D01*
X168847156Y-78095237D02*
X168942394Y-78190475D01*
X168942394Y-78190475D02*
X168990013Y-78285713D01*
X130204299Y-67333333D02*
X130918584Y-67333333D01*
X130918584Y-67333333D02*
X131061441Y-67380952D01*
X131061441Y-67380952D02*
X131156680Y-67476190D01*
X131156680Y-67476190D02*
X131204299Y-67619047D01*
X131204299Y-67619047D02*
X131204299Y-67714285D01*
X131204299Y-66333333D02*
X131204299Y-66904761D01*
X131204299Y-66619047D02*
X130204299Y-66619047D01*
X130204299Y-66619047D02*
X130347156Y-66714285D01*
X130347156Y-66714285D02*
X130442394Y-66809523D01*
X130442394Y-66809523D02*
X130490013Y-66904761D01*
X133614180Y-62071428D02*
X133614180Y-60928571D01*
X133614180Y-73071428D02*
X133614180Y-71928571D01*
X134185608Y-72499999D02*
X133042751Y-72499999D01*
X146454299Y-76416666D02*
X145978108Y-76749999D01*
X146454299Y-76988094D02*
X145454299Y-76988094D01*
X145454299Y-76988094D02*
X145454299Y-76607142D01*
X145454299Y-76607142D02*
X145501918Y-76511904D01*
X145501918Y-76511904D02*
X145549537Y-76464285D01*
X145549537Y-76464285D02*
X145644775Y-76416666D01*
X145644775Y-76416666D02*
X145787632Y-76416666D01*
X145787632Y-76416666D02*
X145882870Y-76464285D01*
X145882870Y-76464285D02*
X145930489Y-76511904D01*
X145930489Y-76511904D02*
X145978108Y-76607142D01*
X145978108Y-76607142D02*
X145978108Y-76988094D01*
X145454299Y-75511904D02*
X145454299Y-75988094D01*
X145454299Y-75988094D02*
X145930489Y-76035713D01*
X145930489Y-76035713D02*
X145882870Y-75988094D01*
X145882870Y-75988094D02*
X145835251Y-75892856D01*
X145835251Y-75892856D02*
X145835251Y-75654761D01*
X145835251Y-75654761D02*
X145882870Y-75559523D01*
X145882870Y-75559523D02*
X145930489Y-75511904D01*
X145930489Y-75511904D02*
X146025727Y-75464285D01*
X146025727Y-75464285D02*
X146263822Y-75464285D01*
X146263822Y-75464285D02*
X146359060Y-75511904D01*
X146359060Y-75511904D02*
X146406680Y-75559523D01*
X146406680Y-75559523D02*
X146454299Y-75654761D01*
X146454299Y-75654761D02*
X146454299Y-75892856D01*
X146454299Y-75892856D02*
X146406680Y-75988094D01*
X146406680Y-75988094D02*
X146359060Y-76035713D01*
X154654299Y-76249999D02*
X154178108Y-76549999D01*
X154654299Y-76764285D02*
X153654299Y-76764285D01*
X153654299Y-76764285D02*
X153654299Y-76421428D01*
X153654299Y-76421428D02*
X153701918Y-76335713D01*
X153701918Y-76335713D02*
X153749537Y-76292856D01*
X153749537Y-76292856D02*
X153844775Y-76249999D01*
X153844775Y-76249999D02*
X153987632Y-76249999D01*
X153987632Y-76249999D02*
X154082870Y-76292856D01*
X154082870Y-76292856D02*
X154130489Y-76335713D01*
X154130489Y-76335713D02*
X154178108Y-76421428D01*
X154178108Y-76421428D02*
X154178108Y-76764285D01*
X153654299Y-75949999D02*
X153654299Y-75349999D01*
X153654299Y-75349999D02*
X154654299Y-75735713D01*
X165304299Y-67583333D02*
X166018584Y-67583333D01*
X166018584Y-67583333D02*
X166161441Y-67630952D01*
X166161441Y-67630952D02*
X166256680Y-67726190D01*
X166256680Y-67726190D02*
X166304299Y-67869047D01*
X166304299Y-67869047D02*
X166304299Y-67964285D01*
X165399537Y-67154761D02*
X165351918Y-67107142D01*
X165351918Y-67107142D02*
X165304299Y-67011904D01*
X165304299Y-67011904D02*
X165304299Y-66773809D01*
X165304299Y-66773809D02*
X165351918Y-66678571D01*
X165351918Y-66678571D02*
X165399537Y-66630952D01*
X165399537Y-66630952D02*
X165494775Y-66583333D01*
X165494775Y-66583333D02*
X165590013Y-66583333D01*
X165590013Y-66583333D02*
X165732870Y-66630952D01*
X165732870Y-66630952D02*
X166304299Y-67202380D01*
X166304299Y-67202380D02*
X166304299Y-66583333D01*
X162964180Y-62321428D02*
X162964180Y-61178571D01*
X162964180Y-73321428D02*
X162964180Y-72178571D01*
X163535608Y-72749999D02*
X162392751Y-72749999D01*
X138859060Y-67666666D02*
X138906680Y-67714285D01*
X138906680Y-67714285D02*
X138954299Y-67857142D01*
X138954299Y-67857142D02*
X138954299Y-67952380D01*
X138954299Y-67952380D02*
X138906680Y-68095237D01*
X138906680Y-68095237D02*
X138811441Y-68190475D01*
X138811441Y-68190475D02*
X138716203Y-68238094D01*
X138716203Y-68238094D02*
X138525727Y-68285713D01*
X138525727Y-68285713D02*
X138382870Y-68285713D01*
X138382870Y-68285713D02*
X138192394Y-68238094D01*
X138192394Y-68238094D02*
X138097156Y-68190475D01*
X138097156Y-68190475D02*
X138001918Y-68095237D01*
X138001918Y-68095237D02*
X137954299Y-67952380D01*
X137954299Y-67952380D02*
X137954299Y-67857142D01*
X137954299Y-67857142D02*
X138001918Y-67714285D01*
X138001918Y-67714285D02*
X138049537Y-67666666D01*
X138954299Y-67190475D02*
X138954299Y-66999999D01*
X138954299Y-66999999D02*
X138906680Y-66904761D01*
X138906680Y-66904761D02*
X138859060Y-66857142D01*
X138859060Y-66857142D02*
X138716203Y-66761904D01*
X138716203Y-66761904D02*
X138525727Y-66714285D01*
X138525727Y-66714285D02*
X138144775Y-66714285D01*
X138144775Y-66714285D02*
X138049537Y-66761904D01*
X138049537Y-66761904D02*
X138001918Y-66809523D01*
X138001918Y-66809523D02*
X137954299Y-66904761D01*
X137954299Y-66904761D02*
X137954299Y-67095237D01*
X137954299Y-67095237D02*
X138001918Y-67190475D01*
X138001918Y-67190475D02*
X138049537Y-67238094D01*
X138049537Y-67238094D02*
X138144775Y-67285713D01*
X138144775Y-67285713D02*
X138382870Y-67285713D01*
X138382870Y-67285713D02*
X138478108Y-67238094D01*
X138478108Y-67238094D02*
X138525727Y-67190475D01*
X138525727Y-67190475D02*
X138573346Y-67095237D01*
X138573346Y-67095237D02*
X138573346Y-66904761D01*
X138573346Y-66904761D02*
X138525727Y-66809523D01*
X138525727Y-66809523D02*
X138478108Y-66761904D01*
X138478108Y-66761904D02*
X138382870Y-66714285D01*
X135954299Y-73369047D02*
X134954299Y-73369047D01*
X134954299Y-73369047D02*
X134954299Y-73130952D01*
X134954299Y-73130952D02*
X135001918Y-72988095D01*
X135001918Y-72988095D02*
X135097156Y-72892857D01*
X135097156Y-72892857D02*
X135192394Y-72845238D01*
X135192394Y-72845238D02*
X135382870Y-72797619D01*
X135382870Y-72797619D02*
X135525727Y-72797619D01*
X135525727Y-72797619D02*
X135716203Y-72845238D01*
X135716203Y-72845238D02*
X135811441Y-72892857D01*
X135811441Y-72892857D02*
X135906680Y-72988095D01*
X135906680Y-72988095D02*
X135954299Y-73130952D01*
X135954299Y-73130952D02*
X135954299Y-73369047D01*
X134954299Y-72511904D02*
X134954299Y-71940476D01*
X135954299Y-72226190D02*
X134954299Y-72226190D01*
X135049537Y-71654761D02*
X135001918Y-71607142D01*
X135001918Y-71607142D02*
X134954299Y-71511904D01*
X134954299Y-71511904D02*
X134954299Y-71273809D01*
X134954299Y-71273809D02*
X135001918Y-71178571D01*
X135001918Y-71178571D02*
X135049537Y-71130952D01*
X135049537Y-71130952D02*
X135144775Y-71083333D01*
X135144775Y-71083333D02*
X135240013Y-71083333D01*
X135240013Y-71083333D02*
X135382870Y-71130952D01*
X135382870Y-71130952D02*
X135954299Y-71702380D01*
X135954299Y-71702380D02*
X135954299Y-71083333D01*
X141011905Y-73704299D02*
X141011905Y-72704299D01*
X141011905Y-72704299D02*
X141250000Y-72704299D01*
X141250000Y-72704299D02*
X141392857Y-72751918D01*
X141392857Y-72751918D02*
X141488095Y-72847156D01*
X141488095Y-72847156D02*
X141535714Y-72942394D01*
X141535714Y-72942394D02*
X141583333Y-73132870D01*
X141583333Y-73132870D02*
X141583333Y-73275727D01*
X141583333Y-73275727D02*
X141535714Y-73466203D01*
X141535714Y-73466203D02*
X141488095Y-73561441D01*
X141488095Y-73561441D02*
X141392857Y-73656680D01*
X141392857Y-73656680D02*
X141250000Y-73704299D01*
X141250000Y-73704299D02*
X141011905Y-73704299D01*
X142440476Y-72704299D02*
X142250000Y-72704299D01*
X142250000Y-72704299D02*
X142154762Y-72751918D01*
X142154762Y-72751918D02*
X142107143Y-72799537D01*
X142107143Y-72799537D02*
X142011905Y-72942394D01*
X142011905Y-72942394D02*
X141964286Y-73132870D01*
X141964286Y-73132870D02*
X141964286Y-73513822D01*
X141964286Y-73513822D02*
X142011905Y-73609060D01*
X142011905Y-73609060D02*
X142059524Y-73656680D01*
X142059524Y-73656680D02*
X142154762Y-73704299D01*
X142154762Y-73704299D02*
X142345238Y-73704299D01*
X142345238Y-73704299D02*
X142440476Y-73656680D01*
X142440476Y-73656680D02*
X142488095Y-73609060D01*
X142488095Y-73609060D02*
X142535714Y-73513822D01*
X142535714Y-73513822D02*
X142535714Y-73275727D01*
X142535714Y-73275727D02*
X142488095Y-73180489D01*
X142488095Y-73180489D02*
X142440476Y-73132870D01*
X142440476Y-73132870D02*
X142345238Y-73085251D01*
X142345238Y-73085251D02*
X142154762Y-73085251D01*
X142154762Y-73085251D02*
X142059524Y-73132870D01*
X142059524Y-73132870D02*
X142011905Y-73180489D01*
X142011905Y-73180489D02*
X141964286Y-73275727D01*
X132857142Y-81954299D02*
X132523809Y-81478108D01*
X132285714Y-81954299D02*
X132285714Y-80954299D01*
X132285714Y-80954299D02*
X132666666Y-80954299D01*
X132666666Y-80954299D02*
X132761904Y-81001918D01*
X132761904Y-81001918D02*
X132809523Y-81049537D01*
X132809523Y-81049537D02*
X132857142Y-81144775D01*
X132857142Y-81144775D02*
X132857142Y-81287632D01*
X132857142Y-81287632D02*
X132809523Y-81382870D01*
X132809523Y-81382870D02*
X132761904Y-81430489D01*
X132761904Y-81430489D02*
X132666666Y-81478108D01*
X132666666Y-81478108D02*
X132285714Y-81478108D01*
X133809523Y-81954299D02*
X133238095Y-81954299D01*
X133523809Y-81954299D02*
X133523809Y-80954299D01*
X133523809Y-80954299D02*
X133428571Y-81097156D01*
X133428571Y-81097156D02*
X133333333Y-81192394D01*
X133333333Y-81192394D02*
X133238095Y-81240013D01*
X134428571Y-80954299D02*
X134523809Y-80954299D01*
X134523809Y-80954299D02*
X134619047Y-81001918D01*
X134619047Y-81001918D02*
X134666666Y-81049537D01*
X134666666Y-81049537D02*
X134714285Y-81144775D01*
X134714285Y-81144775D02*
X134761904Y-81335251D01*
X134761904Y-81335251D02*
X134761904Y-81573346D01*
X134761904Y-81573346D02*
X134714285Y-81763822D01*
X134714285Y-81763822D02*
X134666666Y-81859060D01*
X134666666Y-81859060D02*
X134619047Y-81906680D01*
X134619047Y-81906680D02*
X134523809Y-81954299D01*
X134523809Y-81954299D02*
X134428571Y-81954299D01*
X134428571Y-81954299D02*
X134333333Y-81906680D01*
X134333333Y-81906680D02*
X134285714Y-81859060D01*
X134285714Y-81859060D02*
X134238095Y-81763822D01*
X134238095Y-81763822D02*
X134190476Y-81573346D01*
X134190476Y-81573346D02*
X134190476Y-81335251D01*
X134190476Y-81335251D02*
X134238095Y-81144775D01*
X134238095Y-81144775D02*
X134285714Y-81049537D01*
X134285714Y-81049537D02*
X134333333Y-81001918D01*
X134333333Y-81001918D02*
X134428571Y-80954299D01*
%TO.C,R6*%
D11*
X150762742Y-75477500D02*
X151237258Y-75477500D01*
X150762742Y-76522500D02*
X151237258Y-76522500D01*
%TO.C,C3*%
X138490000Y-83640580D02*
X138490000Y-83359420D01*
X139510000Y-83640580D02*
X139510000Y-83359420D01*
%TO.C,R3*%
X155862742Y-67977500D02*
X156337258Y-67977500D01*
X155862742Y-69022500D02*
X156337258Y-69022500D01*
%TO.C,C10*%
X143811252Y-66140000D02*
X142388748Y-66140000D01*
X143811252Y-68860000D02*
X142388748Y-68860000D01*
%TO.C,Q3*%
X146040000Y-69720000D02*
X152160000Y-69720000D01*
X146040000Y-75090000D02*
X151720000Y-75090000D01*
X152231622Y-74825270D02*
X152471622Y-75155270D01*
X151991622Y-75155270D01*
X152231622Y-74825270D01*
G36*
X152471622Y-75155270D02*
G01*
X151991622Y-75155270D01*
X152231622Y-74825270D01*
X152471622Y-75155270D01*
G37*
%TO.C,C7*%
X137788748Y-62640000D02*
X139211252Y-62640000D01*
X137788748Y-65360000D02*
X139211252Y-65360000D01*
%TO.C,C2*%
X159265000Y-81488748D02*
X159265000Y-82011252D01*
X160735000Y-81488748D02*
X160735000Y-82011252D01*
%TO.C,Q2*%
X153540000Y-62220000D02*
X159660000Y-62220000D01*
X153540000Y-67590000D02*
X159220000Y-67590000D01*
X159731622Y-67325270D02*
X159971622Y-67655270D01*
X159491622Y-67655270D01*
X159731622Y-67325270D01*
G36*
X159971622Y-67655270D02*
G01*
X159491622Y-67655270D01*
X159731622Y-67325270D01*
X159971622Y-67655270D01*
G37*
%TO.C,Q1*%
X146040000Y-62220000D02*
X152160000Y-62220000D01*
X146040000Y-67590000D02*
X151720000Y-67590000D01*
X152231622Y-67325270D02*
X152471622Y-67655270D01*
X151991622Y-67655270D01*
X152231622Y-67325270D01*
G36*
X152471622Y-67655270D02*
G01*
X151991622Y-67655270D01*
X152231622Y-67325270D01*
X152471622Y-67655270D01*
G37*
%TO.C,C1*%
X169015000Y-81488748D02*
X169015000Y-82011252D01*
X170485000Y-81488748D02*
X170485000Y-82011252D01*
%TO.C,R1*%
X147762742Y-67977500D02*
X148237258Y-67977500D01*
X147762742Y-69022500D02*
X148237258Y-69022500D01*
%TO.C,C6*%
X163140580Y-78240000D02*
X162859420Y-78240000D01*
X163140580Y-79260000D02*
X162859420Y-79260000D01*
%TO.C,D2*%
X158610000Y-77650000D02*
X155950000Y-77650000D01*
X158610000Y-79350000D02*
X155950000Y-79350000D01*
X158610000Y-79350000D02*
X158610000Y-77650000D01*
%TO.C,Q4*%
X153540000Y-69720000D02*
X159660000Y-69720000D01*
X153540000Y-75090000D02*
X159220000Y-75090000D01*
X159731622Y-74825270D02*
X159971622Y-75155270D01*
X159491622Y-75155270D01*
X159731622Y-74825270D01*
G36*
X159971622Y-75155270D02*
G01*
X159491622Y-75155270D01*
X159731622Y-74825270D01*
X159971622Y-75155270D01*
G37*
%TO.C,C12*%
X143811252Y-69640000D02*
X142388748Y-69640000D01*
X143811252Y-72360000D02*
X142388748Y-72360000D01*
%TO.C,J3*%
X120385000Y-74690000D02*
X132105000Y-74690000D01*
X120385000Y-79750000D02*
X120385000Y-74690000D01*
X120385000Y-79750000D02*
X120385000Y-84810000D01*
X120385000Y-84810000D02*
X132105000Y-84810000D01*
X127605000Y-76110000D02*
X127605000Y-79750000D01*
X127605000Y-83390000D02*
X127605000Y-79750000D01*
X131195000Y-77250000D02*
X131795000Y-76950000D01*
X131795000Y-76950000D02*
X131795000Y-77550000D01*
X131795000Y-77550000D02*
X131195000Y-77250000D01*
X132105000Y-74690000D02*
X132105000Y-76110000D01*
X132105000Y-76110000D02*
X127605000Y-76110000D01*
X132105000Y-83390000D02*
X127605000Y-83390000D01*
X132105000Y-84810000D02*
X132105000Y-83390000D01*
X120995000Y-77000000D02*
X126495000Y-77000000D01*
X126495000Y-77500000D01*
X120995000Y-77500000D01*
X120995000Y-77000000D01*
X120995000Y-79500000D02*
X126495000Y-79500000D01*
X126495000Y-80000000D01*
X120995000Y-80000000D01*
X120995000Y-79500000D01*
X120995000Y-82000000D02*
X126495000Y-82000000D01*
X126495000Y-82500000D01*
X120995000Y-82500000D01*
X120995000Y-82000000D01*
%TO.C,R13*%
X138477500Y-75737258D02*
X138477500Y-75262742D01*
X139522500Y-75737258D02*
X139522500Y-75262742D01*
%TO.C,R9*%
X162987258Y-75477500D02*
X162512742Y-75477500D01*
X162987258Y-76522500D02*
X162512742Y-76522500D01*
%TO.C,U1*%
X162940000Y-79690000D02*
X167060000Y-79690000D01*
X162940000Y-79785000D02*
X162940000Y-79690000D01*
X162940000Y-84810000D02*
X162940000Y-84715000D01*
X167060000Y-79690000D02*
X167060000Y-79785000D01*
X167060000Y-84715000D02*
X167060000Y-84810000D01*
X167060000Y-84810000D02*
X162940000Y-84810000D01*
X162400000Y-79780000D02*
X162160000Y-79450000D01*
X162640000Y-79450000D01*
X162400000Y-79780000D01*
G36*
X162400000Y-79780000D02*
G01*
X162160000Y-79450000D01*
X162640000Y-79450000D01*
X162400000Y-79780000D01*
G37*
%TO.C,C11*%
X137788748Y-69640000D02*
X139211252Y-69640000D01*
X137788748Y-72360000D02*
X139211252Y-72360000D01*
%TO.C,C4*%
X153390580Y-78240000D02*
X153109420Y-78240000D01*
X153390580Y-79260000D02*
X153109420Y-79260000D01*
%TO.C,R8*%
X158862742Y-75477500D02*
X159337258Y-75477500D01*
X158862742Y-76522500D02*
X159337258Y-76522500D01*
%TO.C,U2*%
X153190000Y-79690000D02*
X157310000Y-79690000D01*
X153190000Y-79785000D02*
X153190000Y-79690000D01*
X153190000Y-84810000D02*
X153190000Y-84715000D01*
X157310000Y-79690000D02*
X157310000Y-79785000D01*
X157310000Y-84715000D02*
X157310000Y-84810000D01*
X157310000Y-84810000D02*
X153190000Y-84810000D01*
X152650000Y-79780000D02*
X152410000Y-79450000D01*
X152890000Y-79450000D01*
X152650000Y-79780000D01*
G36*
X152650000Y-79780000D02*
G01*
X152410000Y-79450000D01*
X152890000Y-79450000D01*
X152650000Y-79780000D01*
G37*
%TO.C,D3*%
X167950000Y-76735000D02*
X170235000Y-76735000D01*
X170235000Y-75265000D02*
X167950000Y-75265000D01*
X170235000Y-76735000D02*
X170235000Y-75265000D01*
%TO.C,R12*%
X132977500Y-79262742D02*
X132977500Y-79737258D01*
X134022500Y-79262742D02*
X134022500Y-79737258D01*
%TO.C,R4*%
X158862742Y-67977500D02*
X159337258Y-67977500D01*
X158862742Y-69022500D02*
X159337258Y-69022500D01*
%TO.C,D4*%
X164265000Y-75265000D02*
X164265000Y-76735000D01*
X164265000Y-76735000D02*
X166550000Y-76735000D01*
X166550000Y-75265000D02*
X164265000Y-75265000D01*
%TO.C,D5*%
X139900000Y-79242500D02*
X139900000Y-81902500D01*
X141600000Y-79242500D02*
X139900000Y-79242500D01*
X141600000Y-79242500D02*
X141600000Y-81902500D01*
%TO.C,C5*%
X142738748Y-75515000D02*
X143261252Y-75515000D01*
X142738748Y-76985000D02*
X143261252Y-76985000D01*
%TO.C,C8*%
X143811252Y-62640000D02*
X142388748Y-62640000D01*
X143811252Y-65360000D02*
X142388748Y-65360000D01*
%TO.C,R11*%
X132977500Y-75262742D02*
X132977500Y-75737258D01*
X134022500Y-75262742D02*
X134022500Y-75737258D01*
%TO.C,DT3*%
X134940000Y-78240000D02*
X134990000Y-78240000D01*
X134940000Y-79760000D02*
X134940000Y-78240000D01*
X135940000Y-79760000D02*
X134940000Y-79760000D01*
X136110000Y-78240000D02*
X136890000Y-78240000D01*
X138010000Y-78240000D02*
X138060000Y-78240000D01*
X138060000Y-78240000D02*
X138060000Y-79760000D01*
X138060000Y-79760000D02*
X137060000Y-79760000D01*
X136880000Y-77700000D02*
X136550000Y-77940000D01*
X136550000Y-77460000D01*
X136880000Y-77700000D01*
G36*
X136880000Y-77700000D02*
G01*
X136550000Y-77940000D01*
X136550000Y-77460000D01*
X136880000Y-77700000D01*
G37*
%TO.C,R2*%
X150762742Y-67977500D02*
X151237258Y-67977500D01*
X150762742Y-69022500D02*
X151237258Y-69022500D01*
%TO.C,U3*%
X142980000Y-77372500D02*
X142980000Y-77642500D01*
X142980000Y-84272500D02*
X142980000Y-84002500D01*
X149400000Y-77372500D02*
X142980000Y-77372500D01*
X149400000Y-84272500D02*
X142980000Y-84272500D01*
X141250000Y-77682500D02*
X140910000Y-77212500D01*
X141590000Y-77212500D01*
X141250000Y-77682500D01*
G36*
X141250000Y-77682500D02*
G01*
X140910000Y-77212500D01*
X141590000Y-77212500D01*
X141250000Y-77682500D01*
G37*
%TO.C,DT1*%
X134940000Y-81740000D02*
X134990000Y-81740000D01*
X134940000Y-83260000D02*
X134940000Y-81740000D01*
X135940000Y-83260000D02*
X134940000Y-83260000D01*
X136110000Y-81740000D02*
X136890000Y-81740000D01*
X138010000Y-81740000D02*
X138060000Y-81740000D01*
X138060000Y-81740000D02*
X138060000Y-83260000D01*
X138060000Y-83260000D02*
X137060000Y-83260000D01*
X136880000Y-81200000D02*
X136550000Y-81440000D01*
X136550000Y-80960000D01*
X136880000Y-81200000D01*
G36*
X136880000Y-81200000D02*
G01*
X136550000Y-81440000D01*
X136550000Y-80960000D01*
X136880000Y-81200000D01*
G37*
%TO.C,D1*%
X168360000Y-77650000D02*
X165700000Y-77650000D01*
X168360000Y-79350000D02*
X165700000Y-79350000D01*
X168360000Y-79350000D02*
X168360000Y-77650000D01*
%TO.C,J1*%
X120465000Y-61940000D02*
X122565000Y-61940000D01*
X120465000Y-72060000D02*
X120465000Y-61940000D01*
X120465000Y-72060000D02*
X122565000Y-72060000D01*
X122565000Y-61940000D02*
X122565000Y-61350000D01*
X122565000Y-72650000D02*
X122565000Y-72060000D01*
X124785000Y-61940000D02*
X124785000Y-61350000D01*
X124785000Y-61940000D02*
X129685000Y-61940000D01*
X124785000Y-72060000D02*
X129685000Y-72060000D01*
X124785000Y-72650000D02*
X124785000Y-72060000D01*
X129685000Y-72060000D02*
X129685000Y-61940000D01*
X122565000Y-61350000D02*
G75*
G02*
X124785000Y-61350000I1110000J0D01*
G01*
X124785000Y-72650000D02*
G75*
G02*
X122565000Y-72650000I-1110000J0D01*
G01*
%TO.C,R5*%
X147762742Y-75477500D02*
X148237258Y-75477500D01*
X147762742Y-76522500D02*
X148237258Y-76522500D01*
%TO.C,R7*%
X155862742Y-75477500D02*
X156337258Y-75477500D01*
X155862742Y-76522500D02*
X156337258Y-76522500D01*
%TO.C,J2*%
X166740000Y-61490000D02*
X166740000Y-73010000D01*
X168960000Y-61490000D02*
X168960000Y-62190000D01*
X168960000Y-72310000D02*
X168960000Y-73010000D01*
X171010000Y-62190000D02*
X168960000Y-62190000D01*
X171010000Y-62190000D02*
X171010000Y-62720000D01*
X171010000Y-71780000D02*
X171010000Y-72310000D01*
X171010000Y-72310000D02*
X168960000Y-72310000D01*
X177010000Y-62720000D02*
X171010000Y-62720000D01*
X177010000Y-62720000D02*
X177010000Y-71750000D01*
X177010000Y-71780000D02*
X171010000Y-71780000D01*
X166753365Y-61428271D02*
G75*
G02*
X168960000Y-61600000I1096635J-171730D01*
G01*
X168960000Y-72900000D02*
G75*
G02*
X166740000Y-72900000I-1110000J0D01*
G01*
%TO.C,C9*%
X137788748Y-66140000D02*
X139211252Y-66140000D01*
X137788748Y-68860000D02*
X139211252Y-68860000D01*
%TO.C,DT2*%
X134940000Y-74740000D02*
X134990000Y-74740000D01*
X134940000Y-76260000D02*
X134940000Y-74740000D01*
X135940000Y-76260000D02*
X134940000Y-76260000D01*
X136110000Y-74740000D02*
X136890000Y-74740000D01*
X138010000Y-74740000D02*
X138060000Y-74740000D01*
X138060000Y-74740000D02*
X138060000Y-76260000D01*
X138060000Y-76260000D02*
X137060000Y-76260000D01*
X136880000Y-74200000D02*
X136550000Y-74440000D01*
X136550000Y-73960000D01*
X136880000Y-74200000D01*
G36*
X136880000Y-74200000D02*
G01*
X136550000Y-74440000D01*
X136550000Y-73960000D01*
X136880000Y-74200000D01*
G37*
%TO.C,D6*%
X139765000Y-74015000D02*
X139765000Y-76300000D01*
X141235000Y-74015000D02*
X139765000Y-74015000D01*
X141235000Y-76300000D02*
X141235000Y-74015000D01*
%TO.C,R10*%
X132977500Y-83262742D02*
X132977500Y-83737258D01*
X134022500Y-83262742D02*
X134022500Y-83737258D01*
%TD*%
M02*
